G04 #@! TF.FileFunction,Legend,Top*
%FSLAX46Y46*%
G04 Gerber Fmt 4.6, Leading zero omitted, Abs format (unit mm)*
G04 Created by KiCad (PCBNEW 4.0.7-e2-6376~58~ubuntu16.04.1) date Sun Nov  4 15:38:29 2018*
%MOMM*%
%LPD*%
G01*
G04 APERTURE LIST*
%ADD10C,0.100000*%
%ADD11C,0.120000*%
%ADD12C,0.150000*%
%ADD13C,0.203200*%
%ADD14C,0.500000*%
G04 APERTURE END LIST*
D10*
D11*
X117350000Y-96500000D02*
X113000000Y-96500000D01*
X113000000Y-96500000D02*
X113000000Y-95500000D01*
X113000000Y-95500000D02*
X117350000Y-95500000D01*
X111150000Y-97800000D02*
X111150000Y-98150000D01*
X111150000Y-98150000D02*
X109550000Y-98150000D01*
X109550000Y-98150000D02*
X109550000Y-99050000D01*
X109550000Y-99050000D02*
X117350000Y-99050000D01*
X117350000Y-99050000D02*
X117350000Y-92950000D01*
X117350000Y-92950000D02*
X109550000Y-92950000D01*
X109550000Y-92950000D02*
X109550000Y-93850000D01*
X109550000Y-93850000D02*
X111150000Y-93850000D01*
X111150000Y-93850000D02*
X111150000Y-94200000D01*
X111150000Y-99050000D02*
X111150000Y-98150000D01*
X111150000Y-92950000D02*
X111150000Y-93850000D01*
X113500000Y-98300000D02*
X115100000Y-98300000D01*
X115100000Y-98300000D02*
X115100000Y-97300000D01*
X115100000Y-97300000D02*
X113500000Y-97300000D01*
X113500000Y-97300000D02*
X113500000Y-98300000D01*
X113500000Y-93700000D02*
X115100000Y-93700000D01*
X115100000Y-93700000D02*
X115100000Y-94700000D01*
X115100000Y-94700000D02*
X113500000Y-94700000D01*
X113500000Y-94700000D02*
X113500000Y-93700000D01*
X115100000Y-97300000D02*
X117350000Y-97300000D01*
X115100000Y-97800000D02*
X117350000Y-97800000D01*
X111150000Y-97800000D02*
X109950000Y-97800000D01*
X99057665Y-110578608D02*
G75*
G03X102290000Y-110735516I1672335J1078608D01*
G01*
X99057665Y-108421392D02*
G75*
G02X102290000Y-108264484I1672335J-1078608D01*
G01*
X99688870Y-110579837D02*
G75*
G03X101770961Y-110580000I1041130J1079837D01*
G01*
X99688870Y-108420163D02*
G75*
G02X101770961Y-108420000I1041130J-1079837D01*
G01*
X102290000Y-110736000D02*
X102290000Y-110580000D01*
X102290000Y-108420000D02*
X102290000Y-108264000D01*
X108030000Y-118330000D02*
X108030000Y-115670000D01*
X95270000Y-118330000D02*
X108030000Y-118330000D01*
X95270000Y-115670000D02*
X108030000Y-115670000D01*
X95270000Y-118330000D02*
X95270000Y-115670000D01*
X94000000Y-118330000D02*
X92670000Y-118330000D01*
X92670000Y-118330000D02*
X92670000Y-117000000D01*
D12*
X106850000Y-109550000D02*
X106850000Y-106450000D01*
X105150000Y-106450000D02*
X105150000Y-109550000D01*
X105150000Y-106450000D02*
X106850000Y-106450000D01*
X106850000Y-109550000D02*
X105150000Y-109550000D01*
D13*
X106500000Y-92500000D02*
X106500000Y-104500000D01*
X106500000Y-104500000D02*
X94500000Y-104500000D01*
X94500000Y-104500000D02*
X94500000Y-92500000D01*
X94500000Y-92500000D02*
X106500000Y-92500000D01*
D12*
X91000000Y-110100000D02*
X91000000Y-105900000D01*
X94000000Y-105850000D02*
X94000000Y-110100000D01*
D11*
X110120000Y-89600000D02*
X110120000Y-88400000D01*
X111880000Y-88400000D02*
X111880000Y-89600000D01*
X108620000Y-105100000D02*
X108620000Y-103900000D01*
X110380000Y-103900000D02*
X110380000Y-105100000D01*
X89880000Y-80900000D02*
X89880000Y-82100000D01*
X88120000Y-82100000D02*
X88120000Y-80900000D01*
X110120000Y-84100000D02*
X110120000Y-82900000D01*
X111880000Y-82900000D02*
X111880000Y-84100000D01*
X96880000Y-107400000D02*
X96880000Y-108600000D01*
X95120000Y-108600000D02*
X95120000Y-107400000D01*
X88120000Y-102600000D02*
X88120000Y-101400000D01*
X89880000Y-101400000D02*
X89880000Y-102600000D01*
D12*
X112100000Y-79200000D02*
X112100000Y-75700000D01*
X112100000Y-75700000D02*
X109900000Y-75700000D01*
X109900000Y-75700000D02*
X109900000Y-79200000D01*
X110900000Y-104500000D02*
X110900000Y-103500000D01*
X113100000Y-104500000D02*
X113100000Y-103500000D01*
X110900000Y-104500000D02*
X110900000Y-106800000D01*
X110900000Y-106800000D02*
X113100000Y-106800000D01*
X113100000Y-106800000D02*
X113100000Y-104500000D01*
X113100000Y-109500000D02*
X113100000Y-110500000D01*
X110900000Y-109500000D02*
X110900000Y-110500000D01*
X113100000Y-109500000D02*
X113100000Y-107200000D01*
X113100000Y-107200000D02*
X110900000Y-107200000D01*
X110900000Y-107200000D02*
X110900000Y-109500000D01*
D11*
X89750000Y-107000000D02*
X89750000Y-110200000D01*
X88250000Y-110200000D02*
X88250000Y-107000000D01*
X88250000Y-110200000D02*
X89750000Y-110200000D01*
X106500000Y-110150000D02*
X105500000Y-110150000D01*
X105500000Y-111850000D02*
X106500000Y-111850000D01*
X110350000Y-110000000D02*
X110350000Y-109000000D01*
X108650000Y-109000000D02*
X108650000Y-110000000D01*
D14*
X108300000Y-72900000D02*
X92300000Y-72900000D01*
X92300000Y-90800000D02*
X92300000Y-66800000D01*
X92300000Y-66800000D02*
X108300000Y-66800000D01*
X108300000Y-66800000D02*
X108300000Y-90800000D01*
X108300000Y-90800000D02*
X92300000Y-90800000D01*
D12*
X108002381Y-95833333D02*
X108716667Y-95833333D01*
X108859524Y-95880953D01*
X108954762Y-95976191D01*
X109002381Y-96119048D01*
X109002381Y-96214286D01*
X109002381Y-94833333D02*
X109002381Y-95404762D01*
X109002381Y-95119048D02*
X108002381Y-95119048D01*
X108145238Y-95214286D01*
X108240476Y-95309524D01*
X108288095Y-95404762D01*
X99991905Y-112912381D02*
X99991905Y-111912381D01*
X100230000Y-111912381D01*
X100372858Y-111960000D01*
X100468096Y-112055238D01*
X100515715Y-112150476D01*
X100563334Y-112340952D01*
X100563334Y-112483810D01*
X100515715Y-112674286D01*
X100468096Y-112769524D01*
X100372858Y-112864762D01*
X100230000Y-112912381D01*
X99991905Y-112912381D01*
X100896667Y-111912381D02*
X101515715Y-111912381D01*
X101182381Y-112293333D01*
X101325239Y-112293333D01*
X101420477Y-112340952D01*
X101468096Y-112388571D01*
X101515715Y-112483810D01*
X101515715Y-112721905D01*
X101468096Y-112817143D01*
X101420477Y-112864762D01*
X101325239Y-112912381D01*
X101039524Y-112912381D01*
X100944286Y-112864762D01*
X100896667Y-112817143D01*
X91122381Y-117833333D02*
X91836667Y-117833333D01*
X91979524Y-117880953D01*
X92074762Y-117976191D01*
X92122381Y-118119048D01*
X92122381Y-118214286D01*
X92122381Y-117357143D02*
X91122381Y-117357143D01*
X91122381Y-116976190D01*
X91170000Y-116880952D01*
X91217619Y-116833333D01*
X91312857Y-116785714D01*
X91455714Y-116785714D01*
X91550952Y-116833333D01*
X91598571Y-116880952D01*
X91646190Y-116976190D01*
X91646190Y-117357143D01*
X92122381Y-115833333D02*
X92122381Y-116404762D01*
X92122381Y-116119048D02*
X91122381Y-116119048D01*
X91265238Y-116214286D01*
X91360476Y-116309524D01*
X91408095Y-116404762D01*
X104988095Y-105202381D02*
X104988095Y-106011905D01*
X105035714Y-106107143D01*
X105083333Y-106154762D01*
X105178571Y-106202381D01*
X105369048Y-106202381D01*
X105464286Y-106154762D01*
X105511905Y-106107143D01*
X105559524Y-106011905D01*
X105559524Y-105202381D01*
X106559524Y-106202381D02*
X105988095Y-106202381D01*
X106273809Y-106202381D02*
X106273809Y-105202381D01*
X106178571Y-105345238D01*
X106083333Y-105440476D01*
X105988095Y-105488095D01*
X99416667Y-94404762D02*
X99559524Y-94452381D01*
X99797620Y-94452381D01*
X99892858Y-94404762D01*
X99940477Y-94357143D01*
X99988096Y-94261905D01*
X99988096Y-94166667D01*
X99940477Y-94071429D01*
X99892858Y-94023810D01*
X99797620Y-93976190D01*
X99607143Y-93928571D01*
X99511905Y-93880952D01*
X99464286Y-93833333D01*
X99416667Y-93738095D01*
X99416667Y-93642857D01*
X99464286Y-93547619D01*
X99511905Y-93500000D01*
X99607143Y-93452381D01*
X99845239Y-93452381D01*
X99988096Y-93500000D01*
X100321429Y-93452381D02*
X100559524Y-94452381D01*
X100750001Y-93738095D01*
X100940477Y-94452381D01*
X101178572Y-93452381D01*
X101511905Y-93547619D02*
X101559524Y-93500000D01*
X101654762Y-93452381D01*
X101892858Y-93452381D01*
X101988096Y-93500000D01*
X102035715Y-93547619D01*
X102083334Y-93642857D01*
X102083334Y-93738095D01*
X102035715Y-93880952D01*
X101464286Y-94452381D01*
X102083334Y-94452381D01*
X91166667Y-111904762D02*
X91309524Y-111952381D01*
X91547620Y-111952381D01*
X91642858Y-111904762D01*
X91690477Y-111857143D01*
X91738096Y-111761905D01*
X91738096Y-111666667D01*
X91690477Y-111571429D01*
X91642858Y-111523810D01*
X91547620Y-111476190D01*
X91357143Y-111428571D01*
X91261905Y-111380952D01*
X91214286Y-111333333D01*
X91166667Y-111238095D01*
X91166667Y-111142857D01*
X91214286Y-111047619D01*
X91261905Y-111000000D01*
X91357143Y-110952381D01*
X91595239Y-110952381D01*
X91738096Y-111000000D01*
X92071429Y-110952381D02*
X92309524Y-111952381D01*
X92500001Y-111238095D01*
X92690477Y-111952381D01*
X92928572Y-110952381D01*
X93833334Y-111952381D02*
X93261905Y-111952381D01*
X93547619Y-111952381D02*
X93547619Y-110952381D01*
X93452381Y-111095238D01*
X93357143Y-111190476D01*
X93261905Y-111238095D01*
X113152381Y-89166666D02*
X112676190Y-89500000D01*
X113152381Y-89738095D02*
X112152381Y-89738095D01*
X112152381Y-89357142D01*
X112200000Y-89261904D01*
X112247619Y-89214285D01*
X112342857Y-89166666D01*
X112485714Y-89166666D01*
X112580952Y-89214285D01*
X112628571Y-89261904D01*
X112676190Y-89357142D01*
X112676190Y-89738095D01*
X112152381Y-88309523D02*
X112152381Y-88500000D01*
X112200000Y-88595238D01*
X112247619Y-88642857D01*
X112390476Y-88738095D01*
X112580952Y-88785714D01*
X112961905Y-88785714D01*
X113057143Y-88738095D01*
X113104762Y-88690476D01*
X113152381Y-88595238D01*
X113152381Y-88404761D01*
X113104762Y-88309523D01*
X113057143Y-88261904D01*
X112961905Y-88214285D01*
X112723810Y-88214285D01*
X112628571Y-88261904D01*
X112580952Y-88309523D01*
X112533333Y-88404761D01*
X112533333Y-88595238D01*
X112580952Y-88690476D01*
X112628571Y-88738095D01*
X112723810Y-88785714D01*
X108202381Y-104666666D02*
X107726190Y-105000000D01*
X108202381Y-105238095D02*
X107202381Y-105238095D01*
X107202381Y-104857142D01*
X107250000Y-104761904D01*
X107297619Y-104714285D01*
X107392857Y-104666666D01*
X107535714Y-104666666D01*
X107630952Y-104714285D01*
X107678571Y-104761904D01*
X107726190Y-104857142D01*
X107726190Y-105238095D01*
X107202381Y-103761904D02*
X107202381Y-104238095D01*
X107678571Y-104285714D01*
X107630952Y-104238095D01*
X107583333Y-104142857D01*
X107583333Y-103904761D01*
X107630952Y-103809523D01*
X107678571Y-103761904D01*
X107773810Y-103714285D01*
X108011905Y-103714285D01*
X108107143Y-103761904D01*
X108154762Y-103809523D01*
X108202381Y-103904761D01*
X108202381Y-104142857D01*
X108154762Y-104238095D01*
X108107143Y-104285714D01*
X87752381Y-81666666D02*
X87276190Y-82000000D01*
X87752381Y-82238095D02*
X86752381Y-82238095D01*
X86752381Y-81857142D01*
X86800000Y-81761904D01*
X86847619Y-81714285D01*
X86942857Y-81666666D01*
X87085714Y-81666666D01*
X87180952Y-81714285D01*
X87228571Y-81761904D01*
X87276190Y-81857142D01*
X87276190Y-82238095D01*
X87085714Y-80809523D02*
X87752381Y-80809523D01*
X86704762Y-81047619D02*
X87419048Y-81285714D01*
X87419048Y-80666666D01*
X113152381Y-83666666D02*
X112676190Y-84000000D01*
X113152381Y-84238095D02*
X112152381Y-84238095D01*
X112152381Y-83857142D01*
X112200000Y-83761904D01*
X112247619Y-83714285D01*
X112342857Y-83666666D01*
X112485714Y-83666666D01*
X112580952Y-83714285D01*
X112628571Y-83761904D01*
X112676190Y-83857142D01*
X112676190Y-84238095D01*
X112152381Y-83333333D02*
X112152381Y-82714285D01*
X112533333Y-83047619D01*
X112533333Y-82904761D01*
X112580952Y-82809523D01*
X112628571Y-82761904D01*
X112723810Y-82714285D01*
X112961905Y-82714285D01*
X113057143Y-82761904D01*
X113104762Y-82809523D01*
X113152381Y-82904761D01*
X113152381Y-83190476D01*
X113104762Y-83285714D01*
X113057143Y-83333333D01*
X95833334Y-111702381D02*
X95500000Y-111226190D01*
X95261905Y-111702381D02*
X95261905Y-110702381D01*
X95642858Y-110702381D01*
X95738096Y-110750000D01*
X95785715Y-110797619D01*
X95833334Y-110892857D01*
X95833334Y-111035714D01*
X95785715Y-111130952D01*
X95738096Y-111178571D01*
X95642858Y-111226190D01*
X95261905Y-111226190D01*
X96214286Y-110797619D02*
X96261905Y-110750000D01*
X96357143Y-110702381D01*
X96595239Y-110702381D01*
X96690477Y-110750000D01*
X96738096Y-110797619D01*
X96785715Y-110892857D01*
X96785715Y-110988095D01*
X96738096Y-111130952D01*
X96166667Y-111702381D01*
X96785715Y-111702381D01*
X87702381Y-102166666D02*
X87226190Y-102500000D01*
X87702381Y-102738095D02*
X86702381Y-102738095D01*
X86702381Y-102357142D01*
X86750000Y-102261904D01*
X86797619Y-102214285D01*
X86892857Y-102166666D01*
X87035714Y-102166666D01*
X87130952Y-102214285D01*
X87178571Y-102261904D01*
X87226190Y-102357142D01*
X87226190Y-102738095D01*
X87702381Y-101214285D02*
X87702381Y-101785714D01*
X87702381Y-101500000D02*
X86702381Y-101500000D01*
X86845238Y-101595238D01*
X86940476Y-101690476D01*
X86988095Y-101785714D01*
X113352381Y-78938095D02*
X112352381Y-78938095D01*
X112352381Y-78700000D01*
X112400000Y-78557142D01*
X112495238Y-78461904D01*
X112590476Y-78414285D01*
X112780952Y-78366666D01*
X112923810Y-78366666D01*
X113114286Y-78414285D01*
X113209524Y-78461904D01*
X113304762Y-78557142D01*
X113352381Y-78700000D01*
X113352381Y-78938095D01*
X112352381Y-77461904D02*
X112352381Y-77938095D01*
X112828571Y-77985714D01*
X112780952Y-77938095D01*
X112733333Y-77842857D01*
X112733333Y-77604761D01*
X112780952Y-77509523D01*
X112828571Y-77461904D01*
X112923810Y-77414285D01*
X113161905Y-77414285D01*
X113257143Y-77461904D01*
X113304762Y-77509523D01*
X113352381Y-77604761D01*
X113352381Y-77842857D01*
X113304762Y-77938095D01*
X113257143Y-77985714D01*
X114452381Y-105988095D02*
X113452381Y-105988095D01*
X113452381Y-105750000D01*
X113500000Y-105607142D01*
X113595238Y-105511904D01*
X113690476Y-105464285D01*
X113880952Y-105416666D01*
X114023810Y-105416666D01*
X114214286Y-105464285D01*
X114309524Y-105511904D01*
X114404762Y-105607142D01*
X114452381Y-105750000D01*
X114452381Y-105988095D01*
X113785714Y-104559523D02*
X114452381Y-104559523D01*
X113404762Y-104797619D02*
X114119048Y-105035714D01*
X114119048Y-104416666D01*
X114552381Y-110238095D02*
X113552381Y-110238095D01*
X113552381Y-110000000D01*
X113600000Y-109857142D01*
X113695238Y-109761904D01*
X113790476Y-109714285D01*
X113980952Y-109666666D01*
X114123810Y-109666666D01*
X114314286Y-109714285D01*
X114409524Y-109761904D01*
X114504762Y-109857142D01*
X114552381Y-110000000D01*
X114552381Y-110238095D01*
X113647619Y-109285714D02*
X113600000Y-109238095D01*
X113552381Y-109142857D01*
X113552381Y-108904761D01*
X113600000Y-108809523D01*
X113647619Y-108761904D01*
X113742857Y-108714285D01*
X113838095Y-108714285D01*
X113980952Y-108761904D01*
X114552381Y-109333333D01*
X114552381Y-108714285D01*
X87752381Y-108738095D02*
X86752381Y-108738095D01*
X86752381Y-108500000D01*
X86800000Y-108357142D01*
X86895238Y-108261904D01*
X86990476Y-108214285D01*
X87180952Y-108166666D01*
X87323810Y-108166666D01*
X87514286Y-108214285D01*
X87609524Y-108261904D01*
X87704762Y-108357142D01*
X87752381Y-108500000D01*
X87752381Y-108738095D01*
X87752381Y-107214285D02*
X87752381Y-107785714D01*
X87752381Y-107500000D02*
X86752381Y-107500000D01*
X86895238Y-107595238D01*
X86990476Y-107690476D01*
X87038095Y-107785714D01*
X105583334Y-113107143D02*
X105535715Y-113154762D01*
X105392858Y-113202381D01*
X105297620Y-113202381D01*
X105154762Y-113154762D01*
X105059524Y-113059524D01*
X105011905Y-112964286D01*
X104964286Y-112773810D01*
X104964286Y-112630952D01*
X105011905Y-112440476D01*
X105059524Y-112345238D01*
X105154762Y-112250000D01*
X105297620Y-112202381D01*
X105392858Y-112202381D01*
X105535715Y-112250000D01*
X105583334Y-112297619D01*
X105964286Y-112297619D02*
X106011905Y-112250000D01*
X106107143Y-112202381D01*
X106345239Y-112202381D01*
X106440477Y-112250000D01*
X106488096Y-112297619D01*
X106535715Y-112392857D01*
X106535715Y-112488095D01*
X106488096Y-112630952D01*
X105916667Y-113202381D01*
X106535715Y-113202381D01*
X109333334Y-112857143D02*
X109285715Y-112904762D01*
X109142858Y-112952381D01*
X109047620Y-112952381D01*
X108904762Y-112904762D01*
X108809524Y-112809524D01*
X108761905Y-112714286D01*
X108714286Y-112523810D01*
X108714286Y-112380952D01*
X108761905Y-112190476D01*
X108809524Y-112095238D01*
X108904762Y-112000000D01*
X109047620Y-111952381D01*
X109142858Y-111952381D01*
X109285715Y-112000000D01*
X109333334Y-112047619D01*
X110285715Y-112952381D02*
X109714286Y-112952381D01*
X110000000Y-112952381D02*
X110000000Y-111952381D01*
X109904762Y-112095238D01*
X109809524Y-112190476D01*
X109714286Y-112238095D01*
X115238096Y-86500000D02*
X115142858Y-86452381D01*
X115000001Y-86452381D01*
X114857143Y-86500000D01*
X114761905Y-86595238D01*
X114714286Y-86690476D01*
X114666667Y-86880952D01*
X114666667Y-87023810D01*
X114714286Y-87214286D01*
X114761905Y-87309524D01*
X114857143Y-87404762D01*
X115000001Y-87452381D01*
X115095239Y-87452381D01*
X115238096Y-87404762D01*
X115285715Y-87357143D01*
X115285715Y-87023810D01*
X115095239Y-87023810D01*
X115714286Y-87452381D02*
X115714286Y-86452381D01*
X116285715Y-87452381D01*
X116285715Y-86452381D01*
X116761905Y-87452381D02*
X116761905Y-86452381D01*
X117000000Y-86452381D01*
X117142858Y-86500000D01*
X117238096Y-86595238D01*
X117285715Y-86690476D01*
X117333334Y-86880952D01*
X117333334Y-87023810D01*
X117285715Y-87214286D01*
X117238096Y-87309524D01*
X117142858Y-87404762D01*
X117000000Y-87452381D01*
X116761905Y-87452381D01*
X89202381Y-113357143D02*
X89154762Y-113404762D01*
X89011905Y-113452381D01*
X88916667Y-113452381D01*
X88773809Y-113404762D01*
X88678571Y-113309524D01*
X88630952Y-113214286D01*
X88583333Y-113023810D01*
X88583333Y-112880952D01*
X88630952Y-112690476D01*
X88678571Y-112595238D01*
X88773809Y-112500000D01*
X88916667Y-112452381D01*
X89011905Y-112452381D01*
X89154762Y-112500000D01*
X89202381Y-112547619D01*
X89488095Y-112452381D02*
X90059524Y-112452381D01*
X89773809Y-113452381D02*
X89773809Y-112452381D01*
X90345238Y-113404762D02*
X90488095Y-113452381D01*
X90726191Y-113452381D01*
X90821429Y-113404762D01*
X90869048Y-113357143D01*
X90916667Y-113261905D01*
X90916667Y-113166667D01*
X90869048Y-113071429D01*
X90821429Y-113023810D01*
X90726191Y-112976190D01*
X90535714Y-112928571D01*
X90440476Y-112880952D01*
X90392857Y-112833333D01*
X90345238Y-112738095D01*
X90345238Y-112642857D01*
X90392857Y-112547619D01*
X90440476Y-112500000D01*
X90535714Y-112452381D01*
X90773810Y-112452381D01*
X90916667Y-112500000D01*
X84738096Y-97750000D02*
X84642858Y-97702381D01*
X84500001Y-97702381D01*
X84357143Y-97750000D01*
X84261905Y-97845238D01*
X84214286Y-97940476D01*
X84166667Y-98130952D01*
X84166667Y-98273810D01*
X84214286Y-98464286D01*
X84261905Y-98559524D01*
X84357143Y-98654762D01*
X84500001Y-98702381D01*
X84595239Y-98702381D01*
X84738096Y-98654762D01*
X84785715Y-98607143D01*
X84785715Y-98273810D01*
X84595239Y-98273810D01*
X85214286Y-98702381D02*
X85214286Y-97702381D01*
X85785715Y-98702381D01*
X85785715Y-97702381D01*
X86261905Y-98702381D02*
X86261905Y-97702381D01*
X86500000Y-97702381D01*
X86642858Y-97750000D01*
X86738096Y-97845238D01*
X86785715Y-97940476D01*
X86833334Y-98130952D01*
X86833334Y-98273810D01*
X86785715Y-98464286D01*
X86738096Y-98559524D01*
X86642858Y-98654762D01*
X86500000Y-98702381D01*
X86261905Y-98702381D01*
X84261905Y-89952381D02*
X84880953Y-89952381D01*
X84547619Y-90333333D01*
X84690477Y-90333333D01*
X84785715Y-90380952D01*
X84833334Y-90428571D01*
X84880953Y-90523810D01*
X84880953Y-90761905D01*
X84833334Y-90857143D01*
X84785715Y-90904762D01*
X84690477Y-90952381D01*
X84404762Y-90952381D01*
X84309524Y-90904762D01*
X84261905Y-90857143D01*
X85166667Y-89952381D02*
X85500000Y-90952381D01*
X85833334Y-89952381D01*
X86071429Y-89952381D02*
X86690477Y-89952381D01*
X86357143Y-90333333D01*
X86500001Y-90333333D01*
X86595239Y-90380952D01*
X86642858Y-90428571D01*
X86690477Y-90523810D01*
X86690477Y-90761905D01*
X86642858Y-90857143D01*
X86595239Y-90904762D01*
X86500001Y-90952381D01*
X86214286Y-90952381D01*
X86119048Y-90904762D01*
X86071429Y-90857143D01*
X117928571Y-106738095D02*
X117976190Y-106595238D01*
X118023810Y-106547619D01*
X118119048Y-106500000D01*
X118261905Y-106500000D01*
X118357143Y-106547619D01*
X118404762Y-106595238D01*
X118452381Y-106690476D01*
X118452381Y-107071429D01*
X117452381Y-107071429D01*
X117452381Y-106738095D01*
X117500000Y-106642857D01*
X117547619Y-106595238D01*
X117642857Y-106547619D01*
X117738095Y-106547619D01*
X117833333Y-106595238D01*
X117880952Y-106642857D01*
X117928571Y-106738095D01*
X117928571Y-107071429D01*
X118166667Y-106119048D02*
X118166667Y-105642857D01*
X118452381Y-106214286D02*
X117452381Y-105880953D01*
X118452381Y-105547619D01*
X117452381Y-105357143D02*
X117452381Y-104785714D01*
X118452381Y-105071429D02*
X117452381Y-105071429D01*
X117452381Y-104595238D02*
X117452381Y-104023809D01*
X118452381Y-104309524D02*
X117452381Y-104309524D01*
X118071429Y-103690476D02*
X118071429Y-102928571D01*
X118452381Y-103309523D02*
X117690476Y-103309523D01*
X109952381Y-115202381D02*
X109619047Y-114726190D01*
X109380952Y-115202381D02*
X109380952Y-114202381D01*
X109761905Y-114202381D01*
X109857143Y-114250000D01*
X109904762Y-114297619D01*
X109952381Y-114392857D01*
X109952381Y-114535714D01*
X109904762Y-114630952D01*
X109857143Y-114678571D01*
X109761905Y-114726190D01*
X109380952Y-114726190D01*
X110238095Y-114202381D02*
X110809524Y-114202381D01*
X110523809Y-115202381D02*
X110523809Y-114202381D01*
X111095238Y-115154762D02*
X111238095Y-115202381D01*
X111476191Y-115202381D01*
X111571429Y-115154762D01*
X111619048Y-115107143D01*
X111666667Y-115011905D01*
X111666667Y-114916667D01*
X111619048Y-114821429D01*
X111571429Y-114773810D01*
X111476191Y-114726190D01*
X111285714Y-114678571D01*
X111190476Y-114630952D01*
X111142857Y-114583333D01*
X111095238Y-114488095D01*
X111095238Y-114392857D01*
X111142857Y-114297619D01*
X111190476Y-114250000D01*
X111285714Y-114202381D01*
X111523810Y-114202381D01*
X111666667Y-114250000D01*
X98166667Y-113702381D02*
X98500000Y-114702381D01*
X98833334Y-113702381D01*
X99738096Y-114607143D02*
X99690477Y-114654762D01*
X99547620Y-114702381D01*
X99452382Y-114702381D01*
X99309524Y-114654762D01*
X99214286Y-114559524D01*
X99166667Y-114464286D01*
X99119048Y-114273810D01*
X99119048Y-114130952D01*
X99166667Y-113940476D01*
X99214286Y-113845238D01*
X99309524Y-113750000D01*
X99452382Y-113702381D01*
X99547620Y-113702381D01*
X99690477Y-113750000D01*
X99738096Y-113797619D01*
X100738096Y-114607143D02*
X100690477Y-114654762D01*
X100547620Y-114702381D01*
X100452382Y-114702381D01*
X100309524Y-114654762D01*
X100214286Y-114559524D01*
X100166667Y-114464286D01*
X100119048Y-114273810D01*
X100119048Y-114130952D01*
X100166667Y-113940476D01*
X100214286Y-113845238D01*
X100309524Y-113750000D01*
X100452382Y-113702381D01*
X100547620Y-113702381D01*
X100690477Y-113750000D01*
X100738096Y-113797619D01*
M02*
