G04 #@! TF.FileFunction,Legend,Bot*
%FSLAX46Y46*%
G04 Gerber Fmt 4.6, Leading zero omitted, Abs format (unit mm)*
G04 Created by KiCad (PCBNEW 4.0.7-e2-6376~58~ubuntu16.04.1) date Sun Nov  4 15:38:29 2018*
%MOMM*%
%LPD*%
G01*
G04 APERTURE LIST*
%ADD10C,0.100000*%
%ADD11C,0.150000*%
%ADD12C,0.300000*%
%ADD13C,0.120000*%
G04 APERTURE END LIST*
D10*
D11*
X117988095Y-107178571D02*
X117845238Y-107226190D01*
X117797619Y-107273810D01*
X117750000Y-107369048D01*
X117750000Y-107511905D01*
X117797619Y-107607143D01*
X117845238Y-107654762D01*
X117940476Y-107702381D01*
X118321429Y-107702381D01*
X118321429Y-106702381D01*
X117988095Y-106702381D01*
X117892857Y-106750000D01*
X117845238Y-106797619D01*
X117797619Y-106892857D01*
X117797619Y-106988095D01*
X117845238Y-107083333D01*
X117892857Y-107130952D01*
X117988095Y-107178571D01*
X118321429Y-107178571D01*
X117369048Y-107416667D02*
X116892857Y-107416667D01*
X117464286Y-107702381D02*
X117130953Y-106702381D01*
X116797619Y-107702381D01*
X116607143Y-106702381D02*
X116035714Y-106702381D01*
X116321429Y-107702381D02*
X116321429Y-106702381D01*
X115845238Y-106702381D02*
X115273809Y-106702381D01*
X115559524Y-107702381D02*
X115559524Y-106702381D01*
X114940476Y-107321429D02*
X114178571Y-107321429D01*
X114559523Y-107702381D02*
X114559523Y-106940476D01*
X110797619Y-114952381D02*
X111130953Y-114476190D01*
X111369048Y-114952381D02*
X111369048Y-113952381D01*
X110988095Y-113952381D01*
X110892857Y-114000000D01*
X110845238Y-114047619D01*
X110797619Y-114142857D01*
X110797619Y-114285714D01*
X110845238Y-114380952D01*
X110892857Y-114428571D01*
X110988095Y-114476190D01*
X111369048Y-114476190D01*
X110511905Y-113952381D02*
X109940476Y-113952381D01*
X110226191Y-114952381D02*
X110226191Y-113952381D01*
X109654762Y-114904762D02*
X109511905Y-114952381D01*
X109273809Y-114952381D01*
X109178571Y-114904762D01*
X109130952Y-114857143D01*
X109083333Y-114761905D01*
X109083333Y-114666667D01*
X109130952Y-114571429D01*
X109178571Y-114523810D01*
X109273809Y-114476190D01*
X109464286Y-114428571D01*
X109559524Y-114380952D01*
X109607143Y-114333333D01*
X109654762Y-114238095D01*
X109654762Y-114142857D01*
X109607143Y-114047619D01*
X109559524Y-114000000D01*
X109464286Y-113952381D01*
X109226190Y-113952381D01*
X109083333Y-114000000D01*
X100833333Y-112702381D02*
X100500000Y-113702381D01*
X100166666Y-112702381D01*
X99261904Y-113607143D02*
X99309523Y-113654762D01*
X99452380Y-113702381D01*
X99547618Y-113702381D01*
X99690476Y-113654762D01*
X99785714Y-113559524D01*
X99833333Y-113464286D01*
X99880952Y-113273810D01*
X99880952Y-113130952D01*
X99833333Y-112940476D01*
X99785714Y-112845238D01*
X99690476Y-112750000D01*
X99547618Y-112702381D01*
X99452380Y-112702381D01*
X99309523Y-112750000D01*
X99261904Y-112797619D01*
X98261904Y-113607143D02*
X98309523Y-113654762D01*
X98452380Y-113702381D01*
X98547618Y-113702381D01*
X98690476Y-113654762D01*
X98785714Y-113559524D01*
X98833333Y-113464286D01*
X98880952Y-113273810D01*
X98880952Y-113130952D01*
X98833333Y-112940476D01*
X98785714Y-112845238D01*
X98690476Y-112750000D01*
X98547618Y-112702381D01*
X98452380Y-112702381D01*
X98309523Y-112750000D01*
X98261904Y-112797619D01*
X91797619Y-116107143D02*
X91845238Y-116154762D01*
X91988095Y-116202381D01*
X92083333Y-116202381D01*
X92226191Y-116154762D01*
X92321429Y-116059524D01*
X92369048Y-115964286D01*
X92416667Y-115773810D01*
X92416667Y-115630952D01*
X92369048Y-115440476D01*
X92321429Y-115345238D01*
X92226191Y-115250000D01*
X92083333Y-115202381D01*
X91988095Y-115202381D01*
X91845238Y-115250000D01*
X91797619Y-115297619D01*
X91511905Y-115202381D02*
X90940476Y-115202381D01*
X91226191Y-116202381D02*
X91226191Y-115202381D01*
X90654762Y-116154762D02*
X90511905Y-116202381D01*
X90273809Y-116202381D01*
X90178571Y-116154762D01*
X90130952Y-116107143D01*
X90083333Y-116011905D01*
X90083333Y-115916667D01*
X90130952Y-115821429D01*
X90178571Y-115773810D01*
X90273809Y-115726190D01*
X90464286Y-115678571D01*
X90559524Y-115630952D01*
X90607143Y-115583333D01*
X90654762Y-115488095D01*
X90654762Y-115392857D01*
X90607143Y-115297619D01*
X90559524Y-115250000D01*
X90464286Y-115202381D01*
X90226190Y-115202381D01*
X90083333Y-115250000D01*
X86738095Y-89952381D02*
X86119047Y-89952381D01*
X86452381Y-90333333D01*
X86309523Y-90333333D01*
X86214285Y-90380952D01*
X86166666Y-90428571D01*
X86119047Y-90523810D01*
X86119047Y-90761905D01*
X86166666Y-90857143D01*
X86214285Y-90904762D01*
X86309523Y-90952381D01*
X86595238Y-90952381D01*
X86690476Y-90904762D01*
X86738095Y-90857143D01*
X85833333Y-89952381D02*
X85500000Y-90952381D01*
X85166666Y-89952381D01*
X84928571Y-89952381D02*
X84309523Y-89952381D01*
X84642857Y-90333333D01*
X84499999Y-90333333D01*
X84404761Y-90380952D01*
X84357142Y-90428571D01*
X84309523Y-90523810D01*
X84309523Y-90761905D01*
X84357142Y-90857143D01*
X84404761Y-90904762D01*
X84499999Y-90952381D01*
X84785714Y-90952381D01*
X84880952Y-90904762D01*
X84928571Y-90857143D01*
X116761904Y-86500000D02*
X116857142Y-86452381D01*
X116999999Y-86452381D01*
X117142857Y-86500000D01*
X117238095Y-86595238D01*
X117285714Y-86690476D01*
X117333333Y-86880952D01*
X117333333Y-87023810D01*
X117285714Y-87214286D01*
X117238095Y-87309524D01*
X117142857Y-87404762D01*
X116999999Y-87452381D01*
X116904761Y-87452381D01*
X116761904Y-87404762D01*
X116714285Y-87357143D01*
X116714285Y-87023810D01*
X116904761Y-87023810D01*
X116285714Y-87452381D02*
X116285714Y-86452381D01*
X115714285Y-87452381D01*
X115714285Y-86452381D01*
X115238095Y-87452381D02*
X115238095Y-86452381D01*
X115000000Y-86452381D01*
X114857142Y-86500000D01*
X114761904Y-86595238D01*
X114714285Y-86690476D01*
X114666666Y-86880952D01*
X114666666Y-87023810D01*
X114714285Y-87214286D01*
X114761904Y-87309524D01*
X114857142Y-87404762D01*
X115000000Y-87452381D01*
X115238095Y-87452381D01*
X86261904Y-97750000D02*
X86357142Y-97702381D01*
X86499999Y-97702381D01*
X86642857Y-97750000D01*
X86738095Y-97845238D01*
X86785714Y-97940476D01*
X86833333Y-98130952D01*
X86833333Y-98273810D01*
X86785714Y-98464286D01*
X86738095Y-98559524D01*
X86642857Y-98654762D01*
X86499999Y-98702381D01*
X86404761Y-98702381D01*
X86261904Y-98654762D01*
X86214285Y-98607143D01*
X86214285Y-98273810D01*
X86404761Y-98273810D01*
X85785714Y-98702381D02*
X85785714Y-97702381D01*
X85214285Y-98702381D01*
X85214285Y-97702381D01*
X84738095Y-98702381D02*
X84738095Y-97702381D01*
X84500000Y-97702381D01*
X84357142Y-97750000D01*
X84261904Y-97845238D01*
X84214285Y-97940476D01*
X84166666Y-98130952D01*
X84166666Y-98273810D01*
X84214285Y-98464286D01*
X84261904Y-98559524D01*
X84357142Y-98654762D01*
X84500000Y-98702381D01*
X84738095Y-98702381D01*
D12*
X108678571Y-82067857D02*
X108178571Y-82067857D01*
X107964285Y-82853571D02*
X108678571Y-82853571D01*
X108678571Y-81353571D01*
X107964285Y-81353571D01*
X107321428Y-82853571D02*
X107321428Y-81353571D01*
X106821428Y-81353571D02*
X105964285Y-81353571D01*
X106392856Y-82853571D02*
X106392856Y-81353571D01*
X105535714Y-82425000D02*
X104821428Y-82425000D01*
X105678571Y-82853571D02*
X105178571Y-81353571D01*
X104678571Y-82853571D01*
X104178571Y-82853571D02*
X104178571Y-81353571D01*
X103321428Y-82853571D01*
X103321428Y-81353571D01*
X100964285Y-82067857D02*
X100749999Y-82139286D01*
X100678571Y-82210714D01*
X100607142Y-82353571D01*
X100607142Y-82567857D01*
X100678571Y-82710714D01*
X100749999Y-82782143D01*
X100892857Y-82853571D01*
X101464285Y-82853571D01*
X101464285Y-81353571D01*
X100964285Y-81353571D01*
X100821428Y-81425000D01*
X100749999Y-81496429D01*
X100678571Y-81639286D01*
X100678571Y-81782143D01*
X100749999Y-81925000D01*
X100821428Y-81996429D01*
X100964285Y-82067857D01*
X101464285Y-82067857D01*
X100035714Y-82425000D02*
X99321428Y-82425000D01*
X100178571Y-82853571D02*
X99678571Y-81353571D01*
X99178571Y-82853571D01*
X98178571Y-82067857D02*
X97964285Y-82139286D01*
X97892857Y-82210714D01*
X97821428Y-82353571D01*
X97821428Y-82567857D01*
X97892857Y-82710714D01*
X97964285Y-82782143D01*
X98107143Y-82853571D01*
X98678571Y-82853571D01*
X98678571Y-81353571D01*
X98178571Y-81353571D01*
X98035714Y-81425000D01*
X97964285Y-81496429D01*
X97892857Y-81639286D01*
X97892857Y-81782143D01*
X97964285Y-81925000D01*
X98035714Y-81996429D01*
X98178571Y-82067857D01*
X98678571Y-82067857D01*
X96321428Y-82710714D02*
X96392857Y-82782143D01*
X96607143Y-82853571D01*
X96750000Y-82853571D01*
X96964285Y-82782143D01*
X97107143Y-82639286D01*
X97178571Y-82496429D01*
X97250000Y-82210714D01*
X97250000Y-81996429D01*
X97178571Y-81710714D01*
X97107143Y-81567857D01*
X96964285Y-81425000D01*
X96750000Y-81353571D01*
X96607143Y-81353571D01*
X96392857Y-81425000D01*
X96321428Y-81496429D01*
X95392857Y-81353571D02*
X95107143Y-81353571D01*
X94964285Y-81425000D01*
X94821428Y-81567857D01*
X94750000Y-81853571D01*
X94750000Y-82353571D01*
X94821428Y-82639286D01*
X94964285Y-82782143D01*
X95107143Y-82853571D01*
X95392857Y-82853571D01*
X95535714Y-82782143D01*
X95678571Y-82639286D01*
X95750000Y-82353571D01*
X95750000Y-81853571D01*
X95678571Y-81567857D01*
X95535714Y-81425000D01*
X95392857Y-81353571D01*
X93249999Y-82710714D02*
X93321428Y-82782143D01*
X93535714Y-82853571D01*
X93678571Y-82853571D01*
X93892856Y-82782143D01*
X94035714Y-82639286D01*
X94107142Y-82496429D01*
X94178571Y-82210714D01*
X94178571Y-81996429D01*
X94107142Y-81710714D01*
X94035714Y-81567857D01*
X93892856Y-81425000D01*
X93678571Y-81353571D01*
X93535714Y-81353571D01*
X93321428Y-81425000D01*
X93249999Y-81496429D01*
X92607142Y-82853571D02*
X92607142Y-81353571D01*
X91749999Y-82853571D02*
X92392856Y-81996429D01*
X91749999Y-81353571D02*
X92607142Y-82210714D01*
X104892856Y-84617857D02*
X104392856Y-84617857D01*
X104178570Y-85403571D02*
X104892856Y-85403571D01*
X104892856Y-83903571D01*
X104178570Y-83903571D01*
X103607142Y-85332143D02*
X103392856Y-85403571D01*
X103035713Y-85403571D01*
X102892856Y-85332143D01*
X102821427Y-85260714D01*
X102749999Y-85117857D01*
X102749999Y-84975000D01*
X102821427Y-84832143D01*
X102892856Y-84760714D01*
X103035713Y-84689286D01*
X103321427Y-84617857D01*
X103464285Y-84546429D01*
X103535713Y-84475000D01*
X103607142Y-84332143D01*
X103607142Y-84189286D01*
X103535713Y-84046429D01*
X103464285Y-83975000D01*
X103321427Y-83903571D01*
X102964285Y-83903571D01*
X102749999Y-83975000D01*
X102107142Y-85403571D02*
X102107142Y-83903571D01*
X101535714Y-83903571D01*
X101392856Y-83975000D01*
X101321428Y-84046429D01*
X101249999Y-84189286D01*
X101249999Y-84403571D01*
X101321428Y-84546429D01*
X101392856Y-84617857D01*
X101535714Y-84689286D01*
X102107142Y-84689286D01*
X100392856Y-84546429D02*
X100535714Y-84475000D01*
X100607142Y-84403571D01*
X100678571Y-84260714D01*
X100678571Y-84189286D01*
X100607142Y-84046429D01*
X100535714Y-83975000D01*
X100392856Y-83903571D01*
X100107142Y-83903571D01*
X99964285Y-83975000D01*
X99892856Y-84046429D01*
X99821428Y-84189286D01*
X99821428Y-84260714D01*
X99892856Y-84403571D01*
X99964285Y-84475000D01*
X100107142Y-84546429D01*
X100392856Y-84546429D01*
X100535714Y-84617857D01*
X100607142Y-84689286D01*
X100678571Y-84832143D01*
X100678571Y-85117857D01*
X100607142Y-85260714D01*
X100535714Y-85332143D01*
X100392856Y-85403571D01*
X100107142Y-85403571D01*
X99964285Y-85332143D01*
X99892856Y-85260714D01*
X99821428Y-85117857D01*
X99821428Y-84832143D01*
X99892856Y-84689286D01*
X99964285Y-84617857D01*
X100107142Y-84546429D01*
X99250000Y-84046429D02*
X99178571Y-83975000D01*
X99035714Y-83903571D01*
X98678571Y-83903571D01*
X98535714Y-83975000D01*
X98464285Y-84046429D01*
X98392857Y-84189286D01*
X98392857Y-84332143D01*
X98464285Y-84546429D01*
X99321428Y-85403571D01*
X98392857Y-85403571D01*
X97107143Y-83903571D02*
X97392857Y-83903571D01*
X97535714Y-83975000D01*
X97607143Y-84046429D01*
X97750000Y-84260714D01*
X97821429Y-84546429D01*
X97821429Y-85117857D01*
X97750000Y-85260714D01*
X97678572Y-85332143D01*
X97535714Y-85403571D01*
X97250000Y-85403571D01*
X97107143Y-85332143D01*
X97035714Y-85260714D01*
X96964286Y-85117857D01*
X96964286Y-84760714D01*
X97035714Y-84617857D01*
X97107143Y-84546429D01*
X97250000Y-84475000D01*
X97535714Y-84475000D01*
X97678572Y-84546429D01*
X97750000Y-84617857D01*
X97821429Y-84760714D01*
X95678572Y-83903571D02*
X95964286Y-83903571D01*
X96107143Y-83975000D01*
X96178572Y-84046429D01*
X96321429Y-84260714D01*
X96392858Y-84546429D01*
X96392858Y-85117857D01*
X96321429Y-85260714D01*
X96250001Y-85332143D01*
X96107143Y-85403571D01*
X95821429Y-85403571D01*
X95678572Y-85332143D01*
X95607143Y-85260714D01*
X95535715Y-85117857D01*
X95535715Y-84760714D01*
X95607143Y-84617857D01*
X95678572Y-84546429D01*
X95821429Y-84475000D01*
X96107143Y-84475000D01*
X96250001Y-84546429D01*
X96321429Y-84617857D01*
X96392858Y-84760714D01*
X111321429Y-86453571D02*
X110964286Y-87953571D01*
X110678572Y-86882143D01*
X110392858Y-87953571D01*
X110035715Y-86453571D01*
X109464286Y-87953571D02*
X109464286Y-86453571D01*
X108250000Y-87167857D02*
X108750000Y-87167857D01*
X108750000Y-87953571D02*
X108750000Y-86453571D01*
X108035714Y-86453571D01*
X107464286Y-87953571D02*
X107464286Y-86453571D01*
X105107143Y-87167857D02*
X104892857Y-87239286D01*
X104821429Y-87310714D01*
X104750000Y-87453571D01*
X104750000Y-87667857D01*
X104821429Y-87810714D01*
X104892857Y-87882143D01*
X105035715Y-87953571D01*
X105607143Y-87953571D01*
X105607143Y-86453571D01*
X105107143Y-86453571D01*
X104964286Y-86525000D01*
X104892857Y-86596429D01*
X104821429Y-86739286D01*
X104821429Y-86882143D01*
X104892857Y-87025000D01*
X104964286Y-87096429D01*
X105107143Y-87167857D01*
X105607143Y-87167857D01*
X104107143Y-86453571D02*
X104107143Y-87667857D01*
X104035715Y-87810714D01*
X103964286Y-87882143D01*
X103821429Y-87953571D01*
X103535715Y-87953571D01*
X103392857Y-87882143D01*
X103321429Y-87810714D01*
X103250000Y-87667857D01*
X103250000Y-86453571D01*
X102750000Y-86453571D02*
X101892857Y-86453571D01*
X102321428Y-87953571D02*
X102321428Y-86453571D01*
X101607143Y-86453571D02*
X100750000Y-86453571D01*
X101178571Y-87953571D02*
X101178571Y-86453571D01*
X99964286Y-86453571D02*
X99678572Y-86453571D01*
X99535714Y-86525000D01*
X99392857Y-86667857D01*
X99321429Y-86953571D01*
X99321429Y-87453571D01*
X99392857Y-87739286D01*
X99535714Y-87882143D01*
X99678572Y-87953571D01*
X99964286Y-87953571D01*
X100107143Y-87882143D01*
X100250000Y-87739286D01*
X100321429Y-87453571D01*
X100321429Y-86953571D01*
X100250000Y-86667857D01*
X100107143Y-86525000D01*
X99964286Y-86453571D01*
X98678571Y-87953571D02*
X98678571Y-86453571D01*
X97821428Y-87953571D01*
X97821428Y-86453571D01*
X95464285Y-87167857D02*
X95249999Y-87239286D01*
X95178571Y-87310714D01*
X95107142Y-87453571D01*
X95107142Y-87667857D01*
X95178571Y-87810714D01*
X95249999Y-87882143D01*
X95392857Y-87953571D01*
X95964285Y-87953571D01*
X95964285Y-86453571D01*
X95464285Y-86453571D01*
X95321428Y-86525000D01*
X95249999Y-86596429D01*
X95178571Y-86739286D01*
X95178571Y-86882143D01*
X95249999Y-87025000D01*
X95321428Y-87096429D01*
X95464285Y-87167857D01*
X95964285Y-87167857D01*
X94178571Y-86453571D02*
X93892857Y-86453571D01*
X93749999Y-86525000D01*
X93607142Y-86667857D01*
X93535714Y-86953571D01*
X93535714Y-87453571D01*
X93607142Y-87739286D01*
X93749999Y-87882143D01*
X93892857Y-87953571D01*
X94178571Y-87953571D01*
X94321428Y-87882143D01*
X94464285Y-87739286D01*
X94535714Y-87453571D01*
X94535714Y-86953571D01*
X94464285Y-86667857D01*
X94321428Y-86525000D01*
X94178571Y-86453571D01*
X92964285Y-87525000D02*
X92249999Y-87525000D01*
X93107142Y-87953571D02*
X92607142Y-86453571D01*
X92107142Y-87953571D01*
X90749999Y-87953571D02*
X91249999Y-87239286D01*
X91607142Y-87953571D02*
X91607142Y-86453571D01*
X91035714Y-86453571D01*
X90892856Y-86525000D01*
X90821428Y-86596429D01*
X90749999Y-86739286D01*
X90749999Y-86953571D01*
X90821428Y-87096429D01*
X90892856Y-87167857D01*
X91035714Y-87239286D01*
X91607142Y-87239286D01*
X90107142Y-87953571D02*
X90107142Y-86453571D01*
X89749999Y-86453571D01*
X89535714Y-86525000D01*
X89392856Y-86667857D01*
X89321428Y-86810714D01*
X89249999Y-87096429D01*
X89249999Y-87310714D01*
X89321428Y-87596429D01*
X89392856Y-87739286D01*
X89535714Y-87882143D01*
X89749999Y-87953571D01*
X90107142Y-87953571D01*
X102535714Y-89003571D02*
X102035714Y-90503571D01*
X101535714Y-89003571D01*
X100250000Y-90503571D02*
X101107143Y-90503571D01*
X100678571Y-90503571D02*
X100678571Y-89003571D01*
X100821428Y-89217857D01*
X100964286Y-89360714D01*
X101107143Y-89432143D01*
X99607143Y-90360714D02*
X99535715Y-90432143D01*
X99607143Y-90503571D01*
X99678572Y-90432143D01*
X99607143Y-90360714D01*
X99607143Y-90503571D01*
X98607143Y-89003571D02*
X98464286Y-89003571D01*
X98321429Y-89075000D01*
X98250000Y-89146429D01*
X98178571Y-89289286D01*
X98107143Y-89575000D01*
X98107143Y-89932143D01*
X98178571Y-90217857D01*
X98250000Y-90360714D01*
X98321429Y-90432143D01*
X98464286Y-90503571D01*
X98607143Y-90503571D01*
X98750000Y-90432143D01*
X98821429Y-90360714D01*
X98892857Y-90217857D01*
X98964286Y-89932143D01*
X98964286Y-89575000D01*
X98892857Y-89289286D01*
X98821429Y-89146429D01*
X98750000Y-89075000D01*
X98607143Y-89003571D01*
D11*
X114000000Y-99250000D02*
X110000000Y-99250000D01*
X110000000Y-103250000D02*
X114000000Y-103250000D01*
D13*
X104380000Y-78100000D02*
X104380000Y-76900000D01*
X102620000Y-76900000D02*
X102620000Y-78100000D01*
X100120000Y-76900000D02*
X100120000Y-78100000D01*
X101880000Y-78100000D02*
X101880000Y-76900000D01*
D11*
X112333333Y-104178571D02*
X112666667Y-104178571D01*
X112666667Y-104702381D02*
X112666667Y-103702381D01*
X112190476Y-103702381D01*
X111285714Y-104702381D02*
X111857143Y-104702381D01*
X111571429Y-104702381D02*
X111571429Y-103702381D01*
X111666667Y-103845238D01*
X111761905Y-103940476D01*
X111857143Y-103988095D01*
X105702381Y-77333334D02*
X105226190Y-77000000D01*
X105702381Y-76761905D02*
X104702381Y-76761905D01*
X104702381Y-77142858D01*
X104750000Y-77238096D01*
X104797619Y-77285715D01*
X104892857Y-77333334D01*
X105035714Y-77333334D01*
X105130952Y-77285715D01*
X105178571Y-77238096D01*
X105226190Y-77142858D01*
X105226190Y-76761905D01*
X104702381Y-77666667D02*
X104702381Y-78333334D01*
X105702381Y-77904762D01*
X99702381Y-77333334D02*
X99226190Y-77000000D01*
X99702381Y-76761905D02*
X98702381Y-76761905D01*
X98702381Y-77142858D01*
X98750000Y-77238096D01*
X98797619Y-77285715D01*
X98892857Y-77333334D01*
X99035714Y-77333334D01*
X99130952Y-77285715D01*
X99178571Y-77238096D01*
X99226190Y-77142858D01*
X99226190Y-76761905D01*
X99130952Y-77904762D02*
X99083333Y-77809524D01*
X99035714Y-77761905D01*
X98940476Y-77714286D01*
X98892857Y-77714286D01*
X98797619Y-77761905D01*
X98750000Y-77809524D01*
X98702381Y-77904762D01*
X98702381Y-78095239D01*
X98750000Y-78190477D01*
X98797619Y-78238096D01*
X98892857Y-78285715D01*
X98940476Y-78285715D01*
X99035714Y-78238096D01*
X99083333Y-78190477D01*
X99130952Y-78095239D01*
X99130952Y-77904762D01*
X99178571Y-77809524D01*
X99226190Y-77761905D01*
X99321429Y-77714286D01*
X99511905Y-77714286D01*
X99607143Y-77761905D01*
X99654762Y-77809524D01*
X99702381Y-77904762D01*
X99702381Y-78095239D01*
X99654762Y-78190477D01*
X99607143Y-78238096D01*
X99511905Y-78285715D01*
X99321429Y-78285715D01*
X99226190Y-78238096D01*
X99178571Y-78190477D01*
X99130952Y-78095239D01*
M02*
