M48
;DRILL file {KiCad 4.0.7-e2-6376~58~ubuntu16.04.1} date Sun Nov  4 15:39:06 2018
;FORMAT={-:-/ absolute / inch / decimal}
FMAT,2
INCH,TZ
T1C0.016
T2C0.030
T3C0.030
T4C0.031
T5C0.035
T6C0.039
%
G90
G05
M72
T1
X3.6713Y-4.2421
X3.8386Y-2.8839
X4.1732Y-3.5433
X4.1732Y-4.252
X4.1929Y-2.9134
X4.252Y-4.4291
X4.3701Y-3.622
X4.4094Y-3.9862
X4.4193Y-2.9232
X4.4488Y-3.1299
T2
X4.3701Y-3.7402
X4.3701Y-3.8189
T3
X3.7106Y-3.7795
X3.7106Y-3.9764
X4.2028Y-3.7795
X4.2028Y-3.9764
T4
X3.3661Y-3.4843
X3.3661Y-3.7894
X3.622Y-4.4882
X3.8189Y-4.4882
X4.3504Y-4.5866
X4.5669Y-3.3465
X4.5669Y-4.1339
T5
X3.9157Y-4.311
X4.0157Y-4.311
T6
X3.7008Y-4.6063
X3.8008Y-4.6063
X3.9008Y-4.6063
X4.0008Y-4.6063
X4.1008Y-4.6063
X4.2008Y-4.6063
T0
M30
