G04 #@! TF.FileFunction,Copper,L1,Top,Signal*
%FSLAX46Y46*%
G04 Gerber Fmt 4.6, Leading zero omitted, Abs format (unit mm)*
G04 Created by KiCad (PCBNEW 4.0.7-e2-6376~58~ubuntu16.04.1) date Sun Nov  4 15:38:29 2018*
%MOMM*%
%LPD*%
G01*
G04 APERTURE LIST*
%ADD10C,0.100000*%
%ADD11R,1.700000X1.200000*%
%ADD12O,1.700000X1.200000*%
%ADD13R,1.800000X1.800000*%
%ADD14C,1.800000*%
%ADD15R,1.700000X1.700000*%
%ADD16O,1.700000X1.700000*%
%ADD17R,0.800000X0.550000*%
%ADD18C,1.524000*%
%ADD19R,1.000000X0.900000*%
%ADD20R,1.300000X1.500000*%
%ADD21R,1.219200X0.889000*%
%ADD22R,1.220000X1.250000*%
%ADD23R,1.500000X1.250000*%
%ADD24R,1.250000X1.500000*%
%ADD25R,2.200000X1.100000*%
%ADD26R,3.200000X3.200000*%
%ADD27R,1.500000X1.500000*%
%ADD28C,1.500000*%
%ADD29C,0.600000*%
%ADD30C,0.500000*%
%ADD31C,0.250000*%
%ADD32C,0.254000*%
G04 APERTURE END LIST*
D10*
D11*
X111000000Y-97000000D03*
D12*
X111000000Y-95000000D03*
D13*
X102000000Y-109500000D03*
D14*
X99460000Y-109500000D03*
D15*
X94000000Y-117000000D03*
D16*
X96540000Y-117000000D03*
X99080000Y-117000000D03*
X101620000Y-117000000D03*
X104160000Y-117000000D03*
X106700000Y-117000000D03*
D17*
X104800000Y-108950000D03*
X104800000Y-107050000D03*
X107200000Y-108950000D03*
X107200000Y-108000000D03*
X107200000Y-107050000D03*
D18*
X106750000Y-96000000D03*
X94250000Y-96000000D03*
X94250000Y-101000000D03*
X106750000Y-101000000D03*
D19*
X93300000Y-110050000D03*
X91700000Y-110050000D03*
X91700000Y-105950000D03*
X93300000Y-105950000D03*
D20*
X111000000Y-87650000D03*
X111000000Y-90350000D03*
X109500000Y-103150000D03*
X109500000Y-105850000D03*
X89000000Y-82850000D03*
X89000000Y-80150000D03*
X111000000Y-82150000D03*
X111000000Y-84850000D03*
X96000000Y-109350000D03*
X96000000Y-106650000D03*
X89000000Y-100650000D03*
X89000000Y-103350000D03*
D21*
X111000000Y-79638300D03*
X111000000Y-76361700D03*
D22*
X112000000Y-103025000D03*
X112000000Y-105975000D03*
X112000000Y-110975000D03*
X112000000Y-108025000D03*
D20*
X89000000Y-109350000D03*
X89000000Y-106650000D03*
D23*
X104750000Y-111000000D03*
X107250000Y-111000000D03*
D24*
X109500000Y-108250000D03*
X109500000Y-110750000D03*
D25*
X108200000Y-75850000D03*
X108200000Y-77850000D03*
X108200000Y-79850000D03*
X108200000Y-81850000D03*
X108200000Y-83850000D03*
X108200000Y-85850000D03*
X108200000Y-87850000D03*
X108200000Y-89850000D03*
X92400000Y-89850000D03*
X92400000Y-87850000D03*
X92400000Y-85850000D03*
X92400000Y-83850000D03*
X92400000Y-81850000D03*
X92400000Y-79850000D03*
X92400000Y-77850000D03*
X92400000Y-75850000D03*
D26*
X100500000Y-80000000D03*
D27*
X116000000Y-85000000D03*
D28*
X92000000Y-114000000D03*
D27*
X85500000Y-96250000D03*
D28*
X85500000Y-88500000D03*
X116000000Y-105000000D03*
X110500000Y-116500000D03*
X97000000Y-114000000D03*
D29*
X93250000Y-107750000D03*
X108000000Y-112500000D03*
X111000000Y-92000000D03*
X106000000Y-108000000D03*
X106000000Y-90000000D03*
X112000000Y-101250000D03*
X113000000Y-79500000D03*
X106500000Y-74000000D03*
X112250000Y-74250000D03*
X97500000Y-73250000D03*
D30*
X109500000Y-108250000D02*
X109500000Y-105850000D01*
X109500000Y-105850000D02*
X109625000Y-105975000D01*
X109625000Y-105975000D02*
X112000000Y-105975000D01*
X112000000Y-105975000D02*
X112000000Y-108025000D01*
X112000000Y-108025000D02*
X111775000Y-108250000D01*
X111775000Y-108250000D02*
X109250000Y-108250000D01*
X109250000Y-108250000D02*
X108550000Y-108950000D01*
X108550000Y-108950000D02*
X107200000Y-108950000D01*
D31*
X93300000Y-110050000D02*
X93300000Y-107800000D01*
X93300000Y-107700000D02*
X93250000Y-107750000D01*
X93300000Y-107700000D02*
X93300000Y-105950000D01*
X93300000Y-107800000D02*
X93250000Y-107750000D01*
X109500000Y-110750000D02*
X109500000Y-111000000D01*
X109500000Y-111000000D02*
X108000000Y-112500000D01*
X107250000Y-111750000D02*
X108000000Y-112500000D01*
X107250000Y-111000000D02*
X107250000Y-111750000D01*
X111000000Y-90350000D02*
X111000000Y-92000000D01*
X107200000Y-108000000D02*
X106000000Y-108000000D01*
X109500000Y-110750000D02*
X109250000Y-110750000D01*
X107250000Y-111000000D02*
X107250000Y-110750000D01*
X108200000Y-89850000D02*
X106150000Y-89850000D01*
X106150000Y-89850000D02*
X106000000Y-90000000D01*
X97000000Y-114000000D02*
X99000000Y-116000000D01*
X99000000Y-116000000D02*
X99000000Y-116920000D01*
X99000000Y-116920000D02*
X99080000Y-117000000D01*
X99080000Y-117000000D02*
X99080000Y-116920000D01*
X99080000Y-116920000D02*
X102500000Y-113500000D01*
X109475000Y-113500000D02*
X110475000Y-112500000D01*
X102500000Y-113500000D02*
X109475000Y-113500000D01*
X110475000Y-112500000D02*
X112000000Y-110975000D01*
X112000000Y-101250000D02*
X112000000Y-103025000D01*
X113000000Y-79500000D02*
X112861700Y-79638300D01*
X112861700Y-79638300D02*
X111000000Y-79638300D01*
X108200000Y-77850000D02*
X109511700Y-77850000D01*
X109511700Y-77850000D02*
X111000000Y-76361700D01*
X92000000Y-114000000D02*
X95000000Y-114000000D01*
X96540000Y-115540000D02*
X96540000Y-117000000D01*
X95000000Y-114000000D02*
X96540000Y-115540000D01*
X106500000Y-74000000D02*
X108200000Y-75700000D01*
X108200000Y-75700000D02*
X108200000Y-75850000D01*
X106700000Y-117000000D02*
X110000000Y-117000000D01*
X110000000Y-117000000D02*
X110500000Y-116500000D01*
X91700000Y-110050000D02*
X91700000Y-105950000D01*
X91700000Y-105950000D02*
X91700000Y-105550000D01*
X91700000Y-105550000D02*
X94000000Y-103250000D01*
X94000000Y-103250000D02*
X95000000Y-103250000D01*
X95000000Y-103250000D02*
X102500000Y-95750000D01*
X102500000Y-95750000D02*
X102500000Y-87750000D01*
X102500000Y-87750000D02*
X106400000Y-83850000D01*
X106400000Y-83850000D02*
X108200000Y-83850000D01*
X89000000Y-109350000D02*
X91000000Y-109350000D01*
X91000000Y-109350000D02*
X91700000Y-110050000D01*
X102000000Y-109500000D02*
X102000000Y-100750000D01*
X102000000Y-100750000D02*
X106750000Y-96000000D01*
X94250000Y-96000000D02*
X94500000Y-96000000D01*
X94500000Y-96000000D02*
X95000000Y-95500000D01*
X95000000Y-95500000D02*
X95000000Y-76500000D01*
X95000000Y-76500000D02*
X94350000Y-75850000D01*
X94350000Y-75850000D02*
X92400000Y-75850000D01*
X111000000Y-84850000D02*
X110650000Y-84850000D01*
X110650000Y-84850000D02*
X109650000Y-85850000D01*
X109650000Y-85850000D02*
X108200000Y-85850000D01*
X89500000Y-80150000D02*
X92100000Y-80150000D01*
X92100000Y-80150000D02*
X92400000Y-79850000D01*
X107200000Y-107050000D02*
X107200000Y-105450000D01*
X107200000Y-105450000D02*
X109500000Y-103150000D01*
X111000000Y-87650000D02*
X108400000Y-87650000D01*
X108400000Y-87650000D02*
X108200000Y-87850000D01*
X96000000Y-106650000D02*
X96610000Y-106650000D01*
X96610000Y-106650000D02*
X99460000Y-109500000D01*
X89000000Y-106650000D02*
X89000000Y-103350000D01*
X101620000Y-117000000D02*
X101620000Y-115880000D01*
X113750000Y-75750000D02*
X112250000Y-74250000D01*
X113750000Y-99000000D02*
X113750000Y-75750000D01*
X117500000Y-102750000D02*
X113750000Y-99000000D01*
X117500000Y-107750000D02*
X117500000Y-102750000D01*
X111000000Y-114250000D02*
X117500000Y-107750000D01*
X103250000Y-114250000D02*
X111000000Y-114250000D01*
X101620000Y-115880000D02*
X103250000Y-114250000D01*
X101620000Y-117000000D02*
X101750000Y-117000000D01*
X104160000Y-117000000D02*
X104160000Y-115840000D01*
X112250000Y-73250000D02*
X97500000Y-73250000D01*
X114500000Y-75500000D02*
X112250000Y-73250000D01*
X114500000Y-99000000D02*
X114500000Y-75500000D01*
X118000000Y-102500000D02*
X114500000Y-99000000D01*
X118000000Y-108000000D02*
X118000000Y-102500000D01*
X111000000Y-115000000D02*
X118000000Y-108000000D01*
X105000000Y-115000000D02*
X111000000Y-115000000D01*
X104160000Y-115840000D02*
X105000000Y-115000000D01*
X104160000Y-117000000D02*
X104160000Y-116840000D01*
D32*
G36*
X96564838Y-73435167D02*
X96706883Y-73778943D01*
X96969673Y-74042192D01*
X97313201Y-74184838D01*
X97685167Y-74185162D01*
X98028943Y-74043117D01*
X98062118Y-74010000D01*
X105564991Y-74010000D01*
X105564838Y-74185167D01*
X105706883Y-74528943D01*
X105969673Y-74792192D01*
X106313201Y-74934838D01*
X106360077Y-74934879D01*
X106498473Y-75073275D01*
X106452560Y-75300000D01*
X106452560Y-76400000D01*
X106496838Y-76635317D01*
X106635910Y-76851441D01*
X106637299Y-76852390D01*
X106503569Y-77048110D01*
X106452560Y-77300000D01*
X106452560Y-78400000D01*
X106496838Y-78635317D01*
X106635910Y-78851441D01*
X106637299Y-78852390D01*
X106503569Y-79048110D01*
X106452560Y-79300000D01*
X106452560Y-80400000D01*
X106496838Y-80635317D01*
X106635910Y-80851441D01*
X106637299Y-80852390D01*
X106503569Y-81048110D01*
X106452560Y-81300000D01*
X106452560Y-82400000D01*
X106496838Y-82635317D01*
X106635910Y-82851441D01*
X106637299Y-82852390D01*
X106503569Y-83048110D01*
X106495086Y-83090000D01*
X106400000Y-83090000D01*
X106109161Y-83147852D01*
X105862599Y-83312599D01*
X101962599Y-87212599D01*
X101797852Y-87459161D01*
X101740000Y-87750000D01*
X101740000Y-95435198D01*
X95469702Y-101705496D01*
X95646757Y-101279100D01*
X95647242Y-100723339D01*
X95435010Y-100209697D01*
X95042370Y-99816371D01*
X94529100Y-99603243D01*
X93973339Y-99602758D01*
X93459697Y-99814990D01*
X93066371Y-100207630D01*
X92853243Y-100720900D01*
X92852758Y-101276661D01*
X93064990Y-101790303D01*
X93457630Y-102183629D01*
X93970900Y-102396757D01*
X94526661Y-102397242D01*
X94954900Y-102220298D01*
X94685198Y-102490000D01*
X94000000Y-102490000D01*
X93709160Y-102547852D01*
X93462599Y-102712599D01*
X91322638Y-104852560D01*
X91200000Y-104852560D01*
X90964683Y-104896838D01*
X90748559Y-105035910D01*
X90603569Y-105248110D01*
X90552560Y-105500000D01*
X90552560Y-106400000D01*
X90596838Y-106635317D01*
X90735910Y-106851441D01*
X90940000Y-106990890D01*
X90940000Y-108590000D01*
X90295558Y-108590000D01*
X90253162Y-108364683D01*
X90114090Y-108148559D01*
X89901890Y-108003569D01*
X89888803Y-108000919D01*
X90101441Y-107864090D01*
X90246431Y-107651890D01*
X90297440Y-107400000D01*
X90297440Y-105900000D01*
X90253162Y-105664683D01*
X90114090Y-105448559D01*
X89901890Y-105303569D01*
X89760000Y-105274836D01*
X89760000Y-104726742D01*
X89885317Y-104703162D01*
X90101441Y-104564090D01*
X90246431Y-104351890D01*
X90297440Y-104100000D01*
X90297440Y-102600000D01*
X90253162Y-102364683D01*
X90114090Y-102148559D01*
X89901890Y-102003569D01*
X89868510Y-101996809D01*
X90009699Y-101938327D01*
X90188327Y-101759698D01*
X90285000Y-101526309D01*
X90285000Y-100935750D01*
X90126250Y-100777000D01*
X89127000Y-100777000D01*
X89127000Y-100797000D01*
X88873000Y-100797000D01*
X88873000Y-100777000D01*
X87873750Y-100777000D01*
X87715000Y-100935750D01*
X87715000Y-101526309D01*
X87811673Y-101759698D01*
X87990301Y-101938327D01*
X88126287Y-101994654D01*
X88114683Y-101996838D01*
X87898559Y-102135910D01*
X87753569Y-102348110D01*
X87702560Y-102600000D01*
X87702560Y-104100000D01*
X87746838Y-104335317D01*
X87885910Y-104551441D01*
X88098110Y-104696431D01*
X88240000Y-104725164D01*
X88240000Y-105273258D01*
X88114683Y-105296838D01*
X87898559Y-105435910D01*
X87753569Y-105648110D01*
X87702560Y-105900000D01*
X87702560Y-107400000D01*
X87746838Y-107635317D01*
X87885910Y-107851441D01*
X88098110Y-107996431D01*
X88111197Y-107999081D01*
X87898559Y-108135910D01*
X87753569Y-108348110D01*
X87702560Y-108600000D01*
X87702560Y-110100000D01*
X87746838Y-110335317D01*
X87885910Y-110551441D01*
X88098110Y-110696431D01*
X88350000Y-110747440D01*
X89650000Y-110747440D01*
X89885317Y-110703162D01*
X90101441Y-110564090D01*
X90246431Y-110351890D01*
X90295415Y-110110000D01*
X90552560Y-110110000D01*
X90552560Y-110500000D01*
X90596838Y-110735317D01*
X90735910Y-110951441D01*
X90948110Y-111096431D01*
X91200000Y-111147440D01*
X92200000Y-111147440D01*
X92435317Y-111103162D01*
X92498478Y-111062519D01*
X92548110Y-111096431D01*
X92800000Y-111147440D01*
X93800000Y-111147440D01*
X94035317Y-111103162D01*
X94251441Y-110964090D01*
X94396431Y-110751890D01*
X94447440Y-110500000D01*
X94447440Y-109635750D01*
X94715000Y-109635750D01*
X94715000Y-110226309D01*
X94811673Y-110459698D01*
X94990301Y-110638327D01*
X95223690Y-110735000D01*
X95714250Y-110735000D01*
X95873000Y-110576250D01*
X95873000Y-109477000D01*
X96127000Y-109477000D01*
X96127000Y-110576250D01*
X96285750Y-110735000D01*
X96776310Y-110735000D01*
X97009699Y-110638327D01*
X97188327Y-110459698D01*
X97285000Y-110226309D01*
X97285000Y-109635750D01*
X97126250Y-109477000D01*
X96127000Y-109477000D01*
X95873000Y-109477000D01*
X94873750Y-109477000D01*
X94715000Y-109635750D01*
X94447440Y-109635750D01*
X94447440Y-109600000D01*
X94403162Y-109364683D01*
X94264090Y-109148559D01*
X94060000Y-109009110D01*
X94060000Y-108237441D01*
X94184838Y-107936799D01*
X94185162Y-107564833D01*
X94060000Y-107261917D01*
X94060000Y-106987279D01*
X94251441Y-106864090D01*
X94396431Y-106651890D01*
X94447440Y-106400000D01*
X94447440Y-105900000D01*
X94702560Y-105900000D01*
X94702560Y-107400000D01*
X94746838Y-107635317D01*
X94885910Y-107851441D01*
X95098110Y-107996431D01*
X95131490Y-108003191D01*
X94990301Y-108061673D01*
X94811673Y-108240302D01*
X94715000Y-108473691D01*
X94715000Y-109064250D01*
X94873750Y-109223000D01*
X95873000Y-109223000D01*
X95873000Y-109203000D01*
X96127000Y-109203000D01*
X96127000Y-109223000D01*
X97126250Y-109223000D01*
X97285000Y-109064250D01*
X97285000Y-108473691D01*
X97232752Y-108347554D01*
X97970234Y-109085036D01*
X97925267Y-109193330D01*
X97924735Y-109803991D01*
X98157932Y-110368371D01*
X98589357Y-110800551D01*
X99153330Y-111034733D01*
X99763991Y-111035265D01*
X100328371Y-110802068D01*
X100496613Y-110634120D01*
X100496838Y-110635317D01*
X100635910Y-110851441D01*
X100848110Y-110996431D01*
X101100000Y-111047440D01*
X102900000Y-111047440D01*
X103135317Y-111003162D01*
X103351441Y-110864090D01*
X103417768Y-110767018D01*
X103523750Y-110873000D01*
X104623000Y-110873000D01*
X104623000Y-109898750D01*
X104549250Y-109825000D01*
X104673000Y-109701250D01*
X104673000Y-109077000D01*
X103923750Y-109077000D01*
X103765000Y-109235750D01*
X103765000Y-109351309D01*
X103861673Y-109584698D01*
X104016974Y-109740000D01*
X103873691Y-109740000D01*
X103640302Y-109836673D01*
X103547440Y-109929534D01*
X103547440Y-108600000D01*
X103537786Y-108548691D01*
X103765000Y-108548691D01*
X103765000Y-108664250D01*
X103923750Y-108823000D01*
X104673000Y-108823000D01*
X104673000Y-108198750D01*
X104514250Y-108040000D01*
X104273690Y-108040000D01*
X104040301Y-108136673D01*
X103861673Y-108315302D01*
X103765000Y-108548691D01*
X103537786Y-108548691D01*
X103503162Y-108364683D01*
X103364090Y-108148559D01*
X103151890Y-108003569D01*
X102900000Y-107952560D01*
X102760000Y-107952560D01*
X102760000Y-101276661D01*
X105352758Y-101276661D01*
X105564990Y-101790303D01*
X105957630Y-102183629D01*
X106470900Y-102396757D01*
X107026661Y-102397242D01*
X107540303Y-102185010D01*
X107933629Y-101792370D01*
X108146757Y-101279100D01*
X108147242Y-100723339D01*
X107935010Y-100209697D01*
X107542370Y-99816371D01*
X107029100Y-99603243D01*
X106473339Y-99602758D01*
X105959697Y-99814990D01*
X105566371Y-100207630D01*
X105353243Y-100720900D01*
X105352758Y-101276661D01*
X102760000Y-101276661D01*
X102760000Y-101064802D01*
X106440619Y-97384183D01*
X106470900Y-97396757D01*
X107026661Y-97397242D01*
X107540303Y-97185010D01*
X107933629Y-96792370D01*
X108146757Y-96279100D01*
X108147242Y-95723339D01*
X107935010Y-95209697D01*
X107725679Y-95000000D01*
X109485907Y-95000000D01*
X109579916Y-95472614D01*
X109832074Y-95849996D01*
X109698559Y-95935910D01*
X109553569Y-96148110D01*
X109502560Y-96400000D01*
X109502560Y-97600000D01*
X109546838Y-97835317D01*
X109685910Y-98051441D01*
X109898110Y-98196431D01*
X110150000Y-98247440D01*
X111850000Y-98247440D01*
X112085317Y-98203162D01*
X112301441Y-98064090D01*
X112446431Y-97851890D01*
X112497440Y-97600000D01*
X112497440Y-96400000D01*
X112453162Y-96164683D01*
X112314090Y-95948559D01*
X112168525Y-95849099D01*
X112420084Y-95472614D01*
X112514093Y-95000000D01*
X112420084Y-94527386D01*
X112152370Y-94126723D01*
X111751707Y-93859009D01*
X111279093Y-93765000D01*
X110720907Y-93765000D01*
X110248293Y-93859009D01*
X109847630Y-94126723D01*
X109579916Y-94527386D01*
X109485907Y-95000000D01*
X107725679Y-95000000D01*
X107542370Y-94816371D01*
X107029100Y-94603243D01*
X106473339Y-94602758D01*
X105959697Y-94814990D01*
X105566371Y-95207630D01*
X105353243Y-95720900D01*
X105352758Y-96276661D01*
X105366143Y-96309055D01*
X101462599Y-100212599D01*
X101297852Y-100459161D01*
X101240000Y-100750000D01*
X101240000Y-107952560D01*
X101100000Y-107952560D01*
X100864683Y-107996838D01*
X100648559Y-108135910D01*
X100503569Y-108348110D01*
X100499433Y-108368534D01*
X100330643Y-108199449D01*
X99766670Y-107965267D01*
X99156009Y-107964735D01*
X99045287Y-108010485D01*
X97297440Y-106262638D01*
X97297440Y-105900000D01*
X97253162Y-105664683D01*
X97114090Y-105448559D01*
X96901890Y-105303569D01*
X96650000Y-105252560D01*
X95350000Y-105252560D01*
X95114683Y-105296838D01*
X94898559Y-105435910D01*
X94753569Y-105648110D01*
X94702560Y-105900000D01*
X94447440Y-105900000D01*
X94447440Y-105500000D01*
X94403162Y-105264683D01*
X94264090Y-105048559D01*
X94051890Y-104903569D01*
X93800000Y-104852560D01*
X93472242Y-104852560D01*
X94314802Y-104010000D01*
X95000000Y-104010000D01*
X95290839Y-103952148D01*
X95537401Y-103787401D01*
X103037401Y-96287401D01*
X103202148Y-96040839D01*
X103260000Y-95750000D01*
X103260000Y-88064802D01*
X106572266Y-84752536D01*
X106635910Y-84851441D01*
X106637299Y-84852390D01*
X106503569Y-85048110D01*
X106452560Y-85300000D01*
X106452560Y-86400000D01*
X106496838Y-86635317D01*
X106635910Y-86851441D01*
X106637299Y-86852390D01*
X106503569Y-87048110D01*
X106452560Y-87300000D01*
X106452560Y-88400000D01*
X106496838Y-88635317D01*
X106635910Y-88851441D01*
X106637299Y-88852390D01*
X106503569Y-89048110D01*
X106495086Y-89090000D01*
X106246615Y-89090000D01*
X106186799Y-89065162D01*
X105814833Y-89064838D01*
X105471057Y-89206883D01*
X105207808Y-89469673D01*
X105065162Y-89813201D01*
X105064838Y-90185167D01*
X105206883Y-90528943D01*
X105469673Y-90792192D01*
X105813201Y-90934838D01*
X106185167Y-90935162D01*
X106528943Y-90793117D01*
X106571221Y-90750912D01*
X106635910Y-90851441D01*
X106848110Y-90996431D01*
X107100000Y-91047440D01*
X109300000Y-91047440D01*
X109535317Y-91003162D01*
X109702560Y-90895544D01*
X109702560Y-91100000D01*
X109746838Y-91335317D01*
X109885910Y-91551441D01*
X110098110Y-91696431D01*
X110112444Y-91699334D01*
X110065162Y-91813201D01*
X110064838Y-92185167D01*
X110206883Y-92528943D01*
X110469673Y-92792192D01*
X110813201Y-92934838D01*
X111185167Y-92935162D01*
X111528943Y-92793117D01*
X111792192Y-92530327D01*
X111934838Y-92186799D01*
X111935162Y-91814833D01*
X111888243Y-91701279D01*
X112101441Y-91564090D01*
X112246431Y-91351890D01*
X112297440Y-91100000D01*
X112297440Y-89600000D01*
X112253162Y-89364683D01*
X112114090Y-89148559D01*
X111901890Y-89003569D01*
X111888803Y-89000919D01*
X112101441Y-88864090D01*
X112246431Y-88651890D01*
X112297440Y-88400000D01*
X112297440Y-86900000D01*
X112253162Y-86664683D01*
X112114090Y-86448559D01*
X111901890Y-86303569D01*
X111650000Y-86252560D01*
X110350000Y-86252560D01*
X110315808Y-86258994D01*
X110331174Y-86243628D01*
X110350000Y-86247440D01*
X111650000Y-86247440D01*
X111885317Y-86203162D01*
X112101441Y-86064090D01*
X112246431Y-85851890D01*
X112297440Y-85600000D01*
X112297440Y-84100000D01*
X112253162Y-83864683D01*
X112114090Y-83648559D01*
X111901890Y-83503569D01*
X111868510Y-83496809D01*
X112009699Y-83438327D01*
X112188327Y-83259698D01*
X112285000Y-83026309D01*
X112285000Y-82435750D01*
X112126250Y-82277000D01*
X111127000Y-82277000D01*
X111127000Y-82297000D01*
X110873000Y-82297000D01*
X110873000Y-82277000D01*
X110853000Y-82277000D01*
X110853000Y-82023000D01*
X110873000Y-82023000D01*
X110873000Y-80923750D01*
X111127000Y-80923750D01*
X111127000Y-82023000D01*
X112126250Y-82023000D01*
X112285000Y-81864250D01*
X112285000Y-81273691D01*
X112188327Y-81040302D01*
X112009699Y-80861673D01*
X111776310Y-80765000D01*
X111285750Y-80765000D01*
X111127000Y-80923750D01*
X110873000Y-80923750D01*
X110714250Y-80765000D01*
X110223690Y-80765000D01*
X109990301Y-80861673D01*
X109857795Y-80994180D01*
X109764090Y-80848559D01*
X109762701Y-80847610D01*
X109896431Y-80651890D01*
X109921705Y-80527084D01*
X109926310Y-80534241D01*
X110138510Y-80679231D01*
X110390400Y-80730240D01*
X111609600Y-80730240D01*
X111844917Y-80685962D01*
X112061041Y-80546890D01*
X112162568Y-80398300D01*
X112725208Y-80398300D01*
X112813201Y-80434838D01*
X112990000Y-80434992D01*
X112990000Y-99000000D01*
X113047852Y-99290839D01*
X113212599Y-99537401D01*
X116740000Y-103064802D01*
X116740000Y-103807619D01*
X116276702Y-103615241D01*
X115725715Y-103614760D01*
X115216485Y-103825169D01*
X114826539Y-104214436D01*
X114615241Y-104723298D01*
X114614760Y-105274285D01*
X114825169Y-105783515D01*
X115214436Y-106173461D01*
X115723298Y-106384759D01*
X116274285Y-106385240D01*
X116740000Y-106192811D01*
X116740000Y-107435198D01*
X113257440Y-110917758D01*
X113257440Y-110350000D01*
X113213162Y-110114683D01*
X113074090Y-109898559D01*
X112861890Y-109753569D01*
X112610000Y-109702560D01*
X111390000Y-109702560D01*
X111154683Y-109746838D01*
X110938559Y-109885910D01*
X110793569Y-110098110D01*
X110772440Y-110202448D01*
X110772440Y-110000000D01*
X110728162Y-109764683D01*
X110589090Y-109548559D01*
X110519289Y-109500866D01*
X110576441Y-109464090D01*
X110721431Y-109251890D01*
X110745102Y-109135000D01*
X110975025Y-109135000D01*
X111138110Y-109246431D01*
X111390000Y-109297440D01*
X112610000Y-109297440D01*
X112845317Y-109253162D01*
X113061441Y-109114090D01*
X113206431Y-108901890D01*
X113257440Y-108650000D01*
X113257440Y-107400000D01*
X113213162Y-107164683D01*
X113106241Y-106998523D01*
X113206431Y-106851890D01*
X113257440Y-106600000D01*
X113257440Y-105350000D01*
X113213162Y-105114683D01*
X113074090Y-104898559D01*
X112861890Y-104753569D01*
X112610000Y-104702560D01*
X111390000Y-104702560D01*
X111154683Y-104746838D01*
X110938559Y-104885910D01*
X110799110Y-105090000D01*
X110795558Y-105090000D01*
X110753162Y-104864683D01*
X110614090Y-104648559D01*
X110401890Y-104503569D01*
X110388803Y-104500919D01*
X110601441Y-104364090D01*
X110746431Y-104151890D01*
X110797164Y-103901364D01*
X110925910Y-104101441D01*
X111138110Y-104246431D01*
X111390000Y-104297440D01*
X112610000Y-104297440D01*
X112845317Y-104253162D01*
X113061441Y-104114090D01*
X113206431Y-103901890D01*
X113257440Y-103650000D01*
X113257440Y-102400000D01*
X113213162Y-102164683D01*
X113074090Y-101948559D01*
X112861890Y-101803569D01*
X112784590Y-101787915D01*
X112792192Y-101780327D01*
X112934838Y-101436799D01*
X112935162Y-101064833D01*
X112793117Y-100721057D01*
X112530327Y-100457808D01*
X112186799Y-100315162D01*
X111814833Y-100314838D01*
X111471057Y-100456883D01*
X111207808Y-100719673D01*
X111065162Y-101063201D01*
X111064838Y-101435167D01*
X111206883Y-101778943D01*
X111213667Y-101785739D01*
X111154683Y-101796838D01*
X110938559Y-101935910D01*
X110793569Y-102148110D01*
X110771007Y-102259523D01*
X110753162Y-102164683D01*
X110614090Y-101948559D01*
X110401890Y-101803569D01*
X110150000Y-101752560D01*
X108850000Y-101752560D01*
X108614683Y-101796838D01*
X108398559Y-101935910D01*
X108253569Y-102148110D01*
X108202560Y-102400000D01*
X108202560Y-103372638D01*
X106662599Y-104912599D01*
X106497852Y-105159161D01*
X106440000Y-105450000D01*
X106440000Y-106252069D01*
X106348559Y-106310910D01*
X106203569Y-106523110D01*
X106152560Y-106775000D01*
X106152560Y-107065132D01*
X105847440Y-107064866D01*
X105847440Y-106775000D01*
X105803162Y-106539683D01*
X105664090Y-106323559D01*
X105451890Y-106178569D01*
X105200000Y-106127560D01*
X104400000Y-106127560D01*
X104164683Y-106171838D01*
X103948559Y-106310910D01*
X103803569Y-106523110D01*
X103752560Y-106775000D01*
X103752560Y-107325000D01*
X103796838Y-107560317D01*
X103935910Y-107776441D01*
X104148110Y-107921431D01*
X104400000Y-107972440D01*
X105065023Y-107972440D01*
X105064946Y-108060804D01*
X104927000Y-108198750D01*
X104927000Y-108823000D01*
X105543867Y-108823000D01*
X105813201Y-108934838D01*
X106152560Y-108935134D01*
X106152560Y-109225000D01*
X106196838Y-109460317D01*
X106335910Y-109676441D01*
X106430002Y-109740731D01*
X106264683Y-109771838D01*
X106048559Y-109910910D01*
X106002031Y-109979006D01*
X105859698Y-109836673D01*
X105626309Y-109740000D01*
X105583026Y-109740000D01*
X105738327Y-109584698D01*
X105835000Y-109351309D01*
X105835000Y-109235750D01*
X105676250Y-109077000D01*
X104927000Y-109077000D01*
X104927000Y-109701250D01*
X105000750Y-109775000D01*
X104877000Y-109898750D01*
X104877000Y-110873000D01*
X104897000Y-110873000D01*
X104897000Y-111127000D01*
X104877000Y-111127000D01*
X104877000Y-112101250D01*
X105035750Y-112260000D01*
X105626309Y-112260000D01*
X105859698Y-112163327D01*
X106000936Y-112022090D01*
X106035910Y-112076441D01*
X106248110Y-112221431D01*
X106500000Y-112272440D01*
X106702602Y-112272440D01*
X106712599Y-112287401D01*
X107064878Y-112639680D01*
X107064838Y-112685167D01*
X107087494Y-112740000D01*
X102500000Y-112740000D01*
X102209160Y-112797852D01*
X101962599Y-112962599D01*
X99500000Y-115425198D01*
X98375002Y-114300200D01*
X98384759Y-114276702D01*
X98385240Y-113725715D01*
X98174831Y-113216485D01*
X97785564Y-112826539D01*
X97276702Y-112615241D01*
X96725715Y-112614760D01*
X96216485Y-112825169D01*
X95826539Y-113214436D01*
X95668893Y-113594091D01*
X95537401Y-113462599D01*
X95290839Y-113297852D01*
X95000000Y-113240000D01*
X93184547Y-113240000D01*
X93174831Y-113216485D01*
X92785564Y-112826539D01*
X92276702Y-112615241D01*
X91725715Y-112614760D01*
X91216485Y-112825169D01*
X90826539Y-113214436D01*
X90615241Y-113723298D01*
X90614760Y-114274285D01*
X90825169Y-114783515D01*
X91214436Y-115173461D01*
X91723298Y-115384759D01*
X92274285Y-115385240D01*
X92783515Y-115174831D01*
X93173461Y-114785564D01*
X93184076Y-114760000D01*
X94685198Y-114760000D01*
X95703416Y-115778218D01*
X95489946Y-115920853D01*
X95462150Y-115962452D01*
X95453162Y-115914683D01*
X95314090Y-115698559D01*
X95101890Y-115553569D01*
X94850000Y-115502560D01*
X93150000Y-115502560D01*
X92914683Y-115546838D01*
X92698559Y-115685910D01*
X92553569Y-115898110D01*
X92502560Y-116150000D01*
X92502560Y-117850000D01*
X92506888Y-117873000D01*
X86665000Y-117873000D01*
X87122943Y-117683782D01*
X87681819Y-117125880D01*
X87984654Y-116396573D01*
X87985343Y-115606891D01*
X87683782Y-114877057D01*
X87125880Y-114318181D01*
X86396573Y-114015346D01*
X85606891Y-114014657D01*
X84877057Y-114316218D01*
X84318181Y-114874120D01*
X84127000Y-115334535D01*
X84127000Y-111285750D01*
X103365000Y-111285750D01*
X103365000Y-111751310D01*
X103461673Y-111984699D01*
X103640302Y-112163327D01*
X103873691Y-112260000D01*
X104464250Y-112260000D01*
X104623000Y-112101250D01*
X104623000Y-111127000D01*
X103523750Y-111127000D01*
X103365000Y-111285750D01*
X84127000Y-111285750D01*
X84127000Y-110000000D01*
X84116994Y-109950590D01*
X84088553Y-109908965D01*
X84046159Y-109881685D01*
X84000000Y-109873000D01*
X82127000Y-109873000D01*
X82127000Y-99773691D01*
X87715000Y-99773691D01*
X87715000Y-100364250D01*
X87873750Y-100523000D01*
X88873000Y-100523000D01*
X88873000Y-99423750D01*
X89127000Y-99423750D01*
X89127000Y-100523000D01*
X90126250Y-100523000D01*
X90285000Y-100364250D01*
X90285000Y-99773691D01*
X90188327Y-99540302D01*
X90009699Y-99361673D01*
X89776310Y-99265000D01*
X89285750Y-99265000D01*
X89127000Y-99423750D01*
X88873000Y-99423750D01*
X88714250Y-99265000D01*
X88223690Y-99265000D01*
X87990301Y-99361673D01*
X87811673Y-99540302D01*
X87715000Y-99773691D01*
X82127000Y-99773691D01*
X82127000Y-95500000D01*
X84102560Y-95500000D01*
X84102560Y-97000000D01*
X84146838Y-97235317D01*
X84285910Y-97451441D01*
X84498110Y-97596431D01*
X84750000Y-97647440D01*
X86250000Y-97647440D01*
X86485317Y-97603162D01*
X86701441Y-97464090D01*
X86846431Y-97251890D01*
X86897440Y-97000000D01*
X86897440Y-95500000D01*
X86853162Y-95264683D01*
X86714090Y-95048559D01*
X86501890Y-94903569D01*
X86250000Y-94852560D01*
X84750000Y-94852560D01*
X84514683Y-94896838D01*
X84298559Y-95035910D01*
X84153569Y-95248110D01*
X84102560Y-95500000D01*
X82127000Y-95500000D01*
X82127000Y-90135750D01*
X90665000Y-90135750D01*
X90665000Y-90526310D01*
X90761673Y-90759699D01*
X90940302Y-90938327D01*
X91173691Y-91035000D01*
X92114250Y-91035000D01*
X92273000Y-90876250D01*
X92273000Y-89977000D01*
X92527000Y-89977000D01*
X92527000Y-90876250D01*
X92685750Y-91035000D01*
X93626309Y-91035000D01*
X93859698Y-90938327D01*
X94038327Y-90759699D01*
X94135000Y-90526310D01*
X94135000Y-90135750D01*
X93976250Y-89977000D01*
X92527000Y-89977000D01*
X92273000Y-89977000D01*
X90823750Y-89977000D01*
X90665000Y-90135750D01*
X82127000Y-90135750D01*
X82127000Y-89471517D01*
X84708088Y-89471517D01*
X84776077Y-89712460D01*
X85295171Y-89897201D01*
X85845448Y-89869230D01*
X86223923Y-89712460D01*
X86291912Y-89471517D01*
X85500000Y-88679605D01*
X84708088Y-89471517D01*
X82127000Y-89471517D01*
X82127000Y-88295171D01*
X84102799Y-88295171D01*
X84130770Y-88845448D01*
X84287540Y-89223923D01*
X84528483Y-89291912D01*
X85320395Y-88500000D01*
X85679605Y-88500000D01*
X86471517Y-89291912D01*
X86712460Y-89223923D01*
X86897201Y-88704829D01*
X86869230Y-88154552D01*
X86712460Y-87776077D01*
X86471517Y-87708088D01*
X85679605Y-88500000D01*
X85320395Y-88500000D01*
X84528483Y-87708088D01*
X84287540Y-87776077D01*
X84102799Y-88295171D01*
X82127000Y-88295171D01*
X82127000Y-87528483D01*
X84708088Y-87528483D01*
X85500000Y-88320395D01*
X86291912Y-87528483D01*
X86223923Y-87287540D01*
X85704829Y-87102799D01*
X85154552Y-87130770D01*
X84776077Y-87287540D01*
X84708088Y-87528483D01*
X82127000Y-87528483D01*
X82127000Y-83135750D01*
X87715000Y-83135750D01*
X87715000Y-83726309D01*
X87811673Y-83959698D01*
X87990301Y-84138327D01*
X88223690Y-84235000D01*
X88714250Y-84235000D01*
X88873000Y-84076250D01*
X88873000Y-82977000D01*
X89127000Y-82977000D01*
X89127000Y-84076250D01*
X89285750Y-84235000D01*
X89776310Y-84235000D01*
X90009699Y-84138327D01*
X90188327Y-83959698D01*
X90285000Y-83726309D01*
X90285000Y-83135750D01*
X90126250Y-82977000D01*
X89127000Y-82977000D01*
X88873000Y-82977000D01*
X87873750Y-82977000D01*
X87715000Y-83135750D01*
X82127000Y-83135750D01*
X82127000Y-79400000D01*
X87702560Y-79400000D01*
X87702560Y-80900000D01*
X87746838Y-81135317D01*
X87885910Y-81351441D01*
X88098110Y-81496431D01*
X88131490Y-81503191D01*
X87990301Y-81561673D01*
X87811673Y-81740302D01*
X87715000Y-81973691D01*
X87715000Y-82564250D01*
X87873750Y-82723000D01*
X88873000Y-82723000D01*
X88873000Y-82703000D01*
X89127000Y-82703000D01*
X89127000Y-82723000D01*
X90126250Y-82723000D01*
X90285000Y-82564250D01*
X90285000Y-81973691D01*
X90188327Y-81740302D01*
X90009699Y-81561673D01*
X89873713Y-81505346D01*
X89885317Y-81503162D01*
X90101441Y-81364090D01*
X90246431Y-81151890D01*
X90295415Y-80910000D01*
X90797935Y-80910000D01*
X90703569Y-81048110D01*
X90652560Y-81300000D01*
X90652560Y-82400000D01*
X90696838Y-82635317D01*
X90835910Y-82851441D01*
X90837299Y-82852390D01*
X90703569Y-83048110D01*
X90652560Y-83300000D01*
X90652560Y-84400000D01*
X90696838Y-84635317D01*
X90835910Y-84851441D01*
X90837299Y-84852390D01*
X90703569Y-85048110D01*
X90652560Y-85300000D01*
X90652560Y-86400000D01*
X90696838Y-86635317D01*
X90835910Y-86851441D01*
X90837299Y-86852390D01*
X90703569Y-87048110D01*
X90652560Y-87300000D01*
X90652560Y-88400000D01*
X90696838Y-88635317D01*
X90835910Y-88851441D01*
X90844598Y-88857377D01*
X90761673Y-88940301D01*
X90665000Y-89173690D01*
X90665000Y-89564250D01*
X90823750Y-89723000D01*
X92273000Y-89723000D01*
X92273000Y-89703000D01*
X92527000Y-89703000D01*
X92527000Y-89723000D01*
X93976250Y-89723000D01*
X94135000Y-89564250D01*
X94135000Y-89173690D01*
X94038327Y-88940301D01*
X93955774Y-88857748D01*
X94096431Y-88651890D01*
X94147440Y-88400000D01*
X94147440Y-87300000D01*
X94103162Y-87064683D01*
X93964090Y-86848559D01*
X93962701Y-86847610D01*
X94096431Y-86651890D01*
X94147440Y-86400000D01*
X94147440Y-85300000D01*
X94103162Y-85064683D01*
X93964090Y-84848559D01*
X93962701Y-84847610D01*
X94096431Y-84651890D01*
X94147440Y-84400000D01*
X94147440Y-83300000D01*
X94103162Y-83064683D01*
X93964090Y-82848559D01*
X93962701Y-82847610D01*
X94096431Y-82651890D01*
X94147440Y-82400000D01*
X94147440Y-81300000D01*
X94103162Y-81064683D01*
X93964090Y-80848559D01*
X93962701Y-80847610D01*
X94096431Y-80651890D01*
X94147440Y-80400000D01*
X94147440Y-79300000D01*
X94103162Y-79064683D01*
X93964090Y-78848559D01*
X93962701Y-78847610D01*
X94096431Y-78651890D01*
X94147440Y-78400000D01*
X94147440Y-77300000D01*
X94103162Y-77064683D01*
X93964090Y-76848559D01*
X93962701Y-76847610D01*
X94088579Y-76663381D01*
X94240000Y-76814802D01*
X94240000Y-94602991D01*
X93973339Y-94602758D01*
X93459697Y-94814990D01*
X93066371Y-95207630D01*
X92853243Y-95720900D01*
X92852758Y-96276661D01*
X93064990Y-96790303D01*
X93457630Y-97183629D01*
X93970900Y-97396757D01*
X94526661Y-97397242D01*
X95040303Y-97185010D01*
X95433629Y-96792370D01*
X95646757Y-96279100D01*
X95647111Y-95873208D01*
X95702148Y-95790839D01*
X95760000Y-95500000D01*
X95760000Y-78400000D01*
X98252560Y-78400000D01*
X98252560Y-81600000D01*
X98296838Y-81835317D01*
X98435910Y-82051441D01*
X98648110Y-82196431D01*
X98900000Y-82247440D01*
X102100000Y-82247440D01*
X102335317Y-82203162D01*
X102551441Y-82064090D01*
X102696431Y-81851890D01*
X102747440Y-81600000D01*
X102747440Y-78400000D01*
X102703162Y-78164683D01*
X102564090Y-77948559D01*
X102351890Y-77803569D01*
X102100000Y-77752560D01*
X98900000Y-77752560D01*
X98664683Y-77796838D01*
X98448559Y-77935910D01*
X98303569Y-78148110D01*
X98252560Y-78400000D01*
X95760000Y-78400000D01*
X95760000Y-76500000D01*
X95702148Y-76209161D01*
X95537401Y-75962599D01*
X94887401Y-75312599D01*
X94640839Y-75147852D01*
X94350000Y-75090000D01*
X94107926Y-75090000D01*
X94103162Y-75064683D01*
X93964090Y-74848559D01*
X93751890Y-74703569D01*
X93500000Y-74652560D01*
X91300000Y-74652560D01*
X91064683Y-74696838D01*
X90848559Y-74835910D01*
X90703569Y-75048110D01*
X90652560Y-75300000D01*
X90652560Y-76400000D01*
X90696838Y-76635317D01*
X90835910Y-76851441D01*
X90837299Y-76852390D01*
X90703569Y-77048110D01*
X90652560Y-77300000D01*
X90652560Y-78400000D01*
X90696838Y-78635317D01*
X90835910Y-78851441D01*
X90837299Y-78852390D01*
X90703569Y-79048110D01*
X90652560Y-79300000D01*
X90652560Y-79390000D01*
X90295558Y-79390000D01*
X90253162Y-79164683D01*
X90114090Y-78948559D01*
X89901890Y-78803569D01*
X89650000Y-78752560D01*
X88350000Y-78752560D01*
X88114683Y-78796838D01*
X87898559Y-78935910D01*
X87753569Y-79148110D01*
X87702560Y-79400000D01*
X82127000Y-79400000D01*
X82127000Y-76627000D01*
X84000000Y-76627000D01*
X84049410Y-76616994D01*
X84091035Y-76588553D01*
X84118315Y-76546159D01*
X84127000Y-76500000D01*
X84127000Y-73127000D01*
X96565106Y-73127000D01*
X96564838Y-73435167D01*
X96564838Y-73435167D01*
G37*
X96564838Y-73435167D02*
X96706883Y-73778943D01*
X96969673Y-74042192D01*
X97313201Y-74184838D01*
X97685167Y-74185162D01*
X98028943Y-74043117D01*
X98062118Y-74010000D01*
X105564991Y-74010000D01*
X105564838Y-74185167D01*
X105706883Y-74528943D01*
X105969673Y-74792192D01*
X106313201Y-74934838D01*
X106360077Y-74934879D01*
X106498473Y-75073275D01*
X106452560Y-75300000D01*
X106452560Y-76400000D01*
X106496838Y-76635317D01*
X106635910Y-76851441D01*
X106637299Y-76852390D01*
X106503569Y-77048110D01*
X106452560Y-77300000D01*
X106452560Y-78400000D01*
X106496838Y-78635317D01*
X106635910Y-78851441D01*
X106637299Y-78852390D01*
X106503569Y-79048110D01*
X106452560Y-79300000D01*
X106452560Y-80400000D01*
X106496838Y-80635317D01*
X106635910Y-80851441D01*
X106637299Y-80852390D01*
X106503569Y-81048110D01*
X106452560Y-81300000D01*
X106452560Y-82400000D01*
X106496838Y-82635317D01*
X106635910Y-82851441D01*
X106637299Y-82852390D01*
X106503569Y-83048110D01*
X106495086Y-83090000D01*
X106400000Y-83090000D01*
X106109161Y-83147852D01*
X105862599Y-83312599D01*
X101962599Y-87212599D01*
X101797852Y-87459161D01*
X101740000Y-87750000D01*
X101740000Y-95435198D01*
X95469702Y-101705496D01*
X95646757Y-101279100D01*
X95647242Y-100723339D01*
X95435010Y-100209697D01*
X95042370Y-99816371D01*
X94529100Y-99603243D01*
X93973339Y-99602758D01*
X93459697Y-99814990D01*
X93066371Y-100207630D01*
X92853243Y-100720900D01*
X92852758Y-101276661D01*
X93064990Y-101790303D01*
X93457630Y-102183629D01*
X93970900Y-102396757D01*
X94526661Y-102397242D01*
X94954900Y-102220298D01*
X94685198Y-102490000D01*
X94000000Y-102490000D01*
X93709160Y-102547852D01*
X93462599Y-102712599D01*
X91322638Y-104852560D01*
X91200000Y-104852560D01*
X90964683Y-104896838D01*
X90748559Y-105035910D01*
X90603569Y-105248110D01*
X90552560Y-105500000D01*
X90552560Y-106400000D01*
X90596838Y-106635317D01*
X90735910Y-106851441D01*
X90940000Y-106990890D01*
X90940000Y-108590000D01*
X90295558Y-108590000D01*
X90253162Y-108364683D01*
X90114090Y-108148559D01*
X89901890Y-108003569D01*
X89888803Y-108000919D01*
X90101441Y-107864090D01*
X90246431Y-107651890D01*
X90297440Y-107400000D01*
X90297440Y-105900000D01*
X90253162Y-105664683D01*
X90114090Y-105448559D01*
X89901890Y-105303569D01*
X89760000Y-105274836D01*
X89760000Y-104726742D01*
X89885317Y-104703162D01*
X90101441Y-104564090D01*
X90246431Y-104351890D01*
X90297440Y-104100000D01*
X90297440Y-102600000D01*
X90253162Y-102364683D01*
X90114090Y-102148559D01*
X89901890Y-102003569D01*
X89868510Y-101996809D01*
X90009699Y-101938327D01*
X90188327Y-101759698D01*
X90285000Y-101526309D01*
X90285000Y-100935750D01*
X90126250Y-100777000D01*
X89127000Y-100777000D01*
X89127000Y-100797000D01*
X88873000Y-100797000D01*
X88873000Y-100777000D01*
X87873750Y-100777000D01*
X87715000Y-100935750D01*
X87715000Y-101526309D01*
X87811673Y-101759698D01*
X87990301Y-101938327D01*
X88126287Y-101994654D01*
X88114683Y-101996838D01*
X87898559Y-102135910D01*
X87753569Y-102348110D01*
X87702560Y-102600000D01*
X87702560Y-104100000D01*
X87746838Y-104335317D01*
X87885910Y-104551441D01*
X88098110Y-104696431D01*
X88240000Y-104725164D01*
X88240000Y-105273258D01*
X88114683Y-105296838D01*
X87898559Y-105435910D01*
X87753569Y-105648110D01*
X87702560Y-105900000D01*
X87702560Y-107400000D01*
X87746838Y-107635317D01*
X87885910Y-107851441D01*
X88098110Y-107996431D01*
X88111197Y-107999081D01*
X87898559Y-108135910D01*
X87753569Y-108348110D01*
X87702560Y-108600000D01*
X87702560Y-110100000D01*
X87746838Y-110335317D01*
X87885910Y-110551441D01*
X88098110Y-110696431D01*
X88350000Y-110747440D01*
X89650000Y-110747440D01*
X89885317Y-110703162D01*
X90101441Y-110564090D01*
X90246431Y-110351890D01*
X90295415Y-110110000D01*
X90552560Y-110110000D01*
X90552560Y-110500000D01*
X90596838Y-110735317D01*
X90735910Y-110951441D01*
X90948110Y-111096431D01*
X91200000Y-111147440D01*
X92200000Y-111147440D01*
X92435317Y-111103162D01*
X92498478Y-111062519D01*
X92548110Y-111096431D01*
X92800000Y-111147440D01*
X93800000Y-111147440D01*
X94035317Y-111103162D01*
X94251441Y-110964090D01*
X94396431Y-110751890D01*
X94447440Y-110500000D01*
X94447440Y-109635750D01*
X94715000Y-109635750D01*
X94715000Y-110226309D01*
X94811673Y-110459698D01*
X94990301Y-110638327D01*
X95223690Y-110735000D01*
X95714250Y-110735000D01*
X95873000Y-110576250D01*
X95873000Y-109477000D01*
X96127000Y-109477000D01*
X96127000Y-110576250D01*
X96285750Y-110735000D01*
X96776310Y-110735000D01*
X97009699Y-110638327D01*
X97188327Y-110459698D01*
X97285000Y-110226309D01*
X97285000Y-109635750D01*
X97126250Y-109477000D01*
X96127000Y-109477000D01*
X95873000Y-109477000D01*
X94873750Y-109477000D01*
X94715000Y-109635750D01*
X94447440Y-109635750D01*
X94447440Y-109600000D01*
X94403162Y-109364683D01*
X94264090Y-109148559D01*
X94060000Y-109009110D01*
X94060000Y-108237441D01*
X94184838Y-107936799D01*
X94185162Y-107564833D01*
X94060000Y-107261917D01*
X94060000Y-106987279D01*
X94251441Y-106864090D01*
X94396431Y-106651890D01*
X94447440Y-106400000D01*
X94447440Y-105900000D01*
X94702560Y-105900000D01*
X94702560Y-107400000D01*
X94746838Y-107635317D01*
X94885910Y-107851441D01*
X95098110Y-107996431D01*
X95131490Y-108003191D01*
X94990301Y-108061673D01*
X94811673Y-108240302D01*
X94715000Y-108473691D01*
X94715000Y-109064250D01*
X94873750Y-109223000D01*
X95873000Y-109223000D01*
X95873000Y-109203000D01*
X96127000Y-109203000D01*
X96127000Y-109223000D01*
X97126250Y-109223000D01*
X97285000Y-109064250D01*
X97285000Y-108473691D01*
X97232752Y-108347554D01*
X97970234Y-109085036D01*
X97925267Y-109193330D01*
X97924735Y-109803991D01*
X98157932Y-110368371D01*
X98589357Y-110800551D01*
X99153330Y-111034733D01*
X99763991Y-111035265D01*
X100328371Y-110802068D01*
X100496613Y-110634120D01*
X100496838Y-110635317D01*
X100635910Y-110851441D01*
X100848110Y-110996431D01*
X101100000Y-111047440D01*
X102900000Y-111047440D01*
X103135317Y-111003162D01*
X103351441Y-110864090D01*
X103417768Y-110767018D01*
X103523750Y-110873000D01*
X104623000Y-110873000D01*
X104623000Y-109898750D01*
X104549250Y-109825000D01*
X104673000Y-109701250D01*
X104673000Y-109077000D01*
X103923750Y-109077000D01*
X103765000Y-109235750D01*
X103765000Y-109351309D01*
X103861673Y-109584698D01*
X104016974Y-109740000D01*
X103873691Y-109740000D01*
X103640302Y-109836673D01*
X103547440Y-109929534D01*
X103547440Y-108600000D01*
X103537786Y-108548691D01*
X103765000Y-108548691D01*
X103765000Y-108664250D01*
X103923750Y-108823000D01*
X104673000Y-108823000D01*
X104673000Y-108198750D01*
X104514250Y-108040000D01*
X104273690Y-108040000D01*
X104040301Y-108136673D01*
X103861673Y-108315302D01*
X103765000Y-108548691D01*
X103537786Y-108548691D01*
X103503162Y-108364683D01*
X103364090Y-108148559D01*
X103151890Y-108003569D01*
X102900000Y-107952560D01*
X102760000Y-107952560D01*
X102760000Y-101276661D01*
X105352758Y-101276661D01*
X105564990Y-101790303D01*
X105957630Y-102183629D01*
X106470900Y-102396757D01*
X107026661Y-102397242D01*
X107540303Y-102185010D01*
X107933629Y-101792370D01*
X108146757Y-101279100D01*
X108147242Y-100723339D01*
X107935010Y-100209697D01*
X107542370Y-99816371D01*
X107029100Y-99603243D01*
X106473339Y-99602758D01*
X105959697Y-99814990D01*
X105566371Y-100207630D01*
X105353243Y-100720900D01*
X105352758Y-101276661D01*
X102760000Y-101276661D01*
X102760000Y-101064802D01*
X106440619Y-97384183D01*
X106470900Y-97396757D01*
X107026661Y-97397242D01*
X107540303Y-97185010D01*
X107933629Y-96792370D01*
X108146757Y-96279100D01*
X108147242Y-95723339D01*
X107935010Y-95209697D01*
X107725679Y-95000000D01*
X109485907Y-95000000D01*
X109579916Y-95472614D01*
X109832074Y-95849996D01*
X109698559Y-95935910D01*
X109553569Y-96148110D01*
X109502560Y-96400000D01*
X109502560Y-97600000D01*
X109546838Y-97835317D01*
X109685910Y-98051441D01*
X109898110Y-98196431D01*
X110150000Y-98247440D01*
X111850000Y-98247440D01*
X112085317Y-98203162D01*
X112301441Y-98064090D01*
X112446431Y-97851890D01*
X112497440Y-97600000D01*
X112497440Y-96400000D01*
X112453162Y-96164683D01*
X112314090Y-95948559D01*
X112168525Y-95849099D01*
X112420084Y-95472614D01*
X112514093Y-95000000D01*
X112420084Y-94527386D01*
X112152370Y-94126723D01*
X111751707Y-93859009D01*
X111279093Y-93765000D01*
X110720907Y-93765000D01*
X110248293Y-93859009D01*
X109847630Y-94126723D01*
X109579916Y-94527386D01*
X109485907Y-95000000D01*
X107725679Y-95000000D01*
X107542370Y-94816371D01*
X107029100Y-94603243D01*
X106473339Y-94602758D01*
X105959697Y-94814990D01*
X105566371Y-95207630D01*
X105353243Y-95720900D01*
X105352758Y-96276661D01*
X105366143Y-96309055D01*
X101462599Y-100212599D01*
X101297852Y-100459161D01*
X101240000Y-100750000D01*
X101240000Y-107952560D01*
X101100000Y-107952560D01*
X100864683Y-107996838D01*
X100648559Y-108135910D01*
X100503569Y-108348110D01*
X100499433Y-108368534D01*
X100330643Y-108199449D01*
X99766670Y-107965267D01*
X99156009Y-107964735D01*
X99045287Y-108010485D01*
X97297440Y-106262638D01*
X97297440Y-105900000D01*
X97253162Y-105664683D01*
X97114090Y-105448559D01*
X96901890Y-105303569D01*
X96650000Y-105252560D01*
X95350000Y-105252560D01*
X95114683Y-105296838D01*
X94898559Y-105435910D01*
X94753569Y-105648110D01*
X94702560Y-105900000D01*
X94447440Y-105900000D01*
X94447440Y-105500000D01*
X94403162Y-105264683D01*
X94264090Y-105048559D01*
X94051890Y-104903569D01*
X93800000Y-104852560D01*
X93472242Y-104852560D01*
X94314802Y-104010000D01*
X95000000Y-104010000D01*
X95290839Y-103952148D01*
X95537401Y-103787401D01*
X103037401Y-96287401D01*
X103202148Y-96040839D01*
X103260000Y-95750000D01*
X103260000Y-88064802D01*
X106572266Y-84752536D01*
X106635910Y-84851441D01*
X106637299Y-84852390D01*
X106503569Y-85048110D01*
X106452560Y-85300000D01*
X106452560Y-86400000D01*
X106496838Y-86635317D01*
X106635910Y-86851441D01*
X106637299Y-86852390D01*
X106503569Y-87048110D01*
X106452560Y-87300000D01*
X106452560Y-88400000D01*
X106496838Y-88635317D01*
X106635910Y-88851441D01*
X106637299Y-88852390D01*
X106503569Y-89048110D01*
X106495086Y-89090000D01*
X106246615Y-89090000D01*
X106186799Y-89065162D01*
X105814833Y-89064838D01*
X105471057Y-89206883D01*
X105207808Y-89469673D01*
X105065162Y-89813201D01*
X105064838Y-90185167D01*
X105206883Y-90528943D01*
X105469673Y-90792192D01*
X105813201Y-90934838D01*
X106185167Y-90935162D01*
X106528943Y-90793117D01*
X106571221Y-90750912D01*
X106635910Y-90851441D01*
X106848110Y-90996431D01*
X107100000Y-91047440D01*
X109300000Y-91047440D01*
X109535317Y-91003162D01*
X109702560Y-90895544D01*
X109702560Y-91100000D01*
X109746838Y-91335317D01*
X109885910Y-91551441D01*
X110098110Y-91696431D01*
X110112444Y-91699334D01*
X110065162Y-91813201D01*
X110064838Y-92185167D01*
X110206883Y-92528943D01*
X110469673Y-92792192D01*
X110813201Y-92934838D01*
X111185167Y-92935162D01*
X111528943Y-92793117D01*
X111792192Y-92530327D01*
X111934838Y-92186799D01*
X111935162Y-91814833D01*
X111888243Y-91701279D01*
X112101441Y-91564090D01*
X112246431Y-91351890D01*
X112297440Y-91100000D01*
X112297440Y-89600000D01*
X112253162Y-89364683D01*
X112114090Y-89148559D01*
X111901890Y-89003569D01*
X111888803Y-89000919D01*
X112101441Y-88864090D01*
X112246431Y-88651890D01*
X112297440Y-88400000D01*
X112297440Y-86900000D01*
X112253162Y-86664683D01*
X112114090Y-86448559D01*
X111901890Y-86303569D01*
X111650000Y-86252560D01*
X110350000Y-86252560D01*
X110315808Y-86258994D01*
X110331174Y-86243628D01*
X110350000Y-86247440D01*
X111650000Y-86247440D01*
X111885317Y-86203162D01*
X112101441Y-86064090D01*
X112246431Y-85851890D01*
X112297440Y-85600000D01*
X112297440Y-84100000D01*
X112253162Y-83864683D01*
X112114090Y-83648559D01*
X111901890Y-83503569D01*
X111868510Y-83496809D01*
X112009699Y-83438327D01*
X112188327Y-83259698D01*
X112285000Y-83026309D01*
X112285000Y-82435750D01*
X112126250Y-82277000D01*
X111127000Y-82277000D01*
X111127000Y-82297000D01*
X110873000Y-82297000D01*
X110873000Y-82277000D01*
X110853000Y-82277000D01*
X110853000Y-82023000D01*
X110873000Y-82023000D01*
X110873000Y-80923750D01*
X111127000Y-80923750D01*
X111127000Y-82023000D01*
X112126250Y-82023000D01*
X112285000Y-81864250D01*
X112285000Y-81273691D01*
X112188327Y-81040302D01*
X112009699Y-80861673D01*
X111776310Y-80765000D01*
X111285750Y-80765000D01*
X111127000Y-80923750D01*
X110873000Y-80923750D01*
X110714250Y-80765000D01*
X110223690Y-80765000D01*
X109990301Y-80861673D01*
X109857795Y-80994180D01*
X109764090Y-80848559D01*
X109762701Y-80847610D01*
X109896431Y-80651890D01*
X109921705Y-80527084D01*
X109926310Y-80534241D01*
X110138510Y-80679231D01*
X110390400Y-80730240D01*
X111609600Y-80730240D01*
X111844917Y-80685962D01*
X112061041Y-80546890D01*
X112162568Y-80398300D01*
X112725208Y-80398300D01*
X112813201Y-80434838D01*
X112990000Y-80434992D01*
X112990000Y-99000000D01*
X113047852Y-99290839D01*
X113212599Y-99537401D01*
X116740000Y-103064802D01*
X116740000Y-103807619D01*
X116276702Y-103615241D01*
X115725715Y-103614760D01*
X115216485Y-103825169D01*
X114826539Y-104214436D01*
X114615241Y-104723298D01*
X114614760Y-105274285D01*
X114825169Y-105783515D01*
X115214436Y-106173461D01*
X115723298Y-106384759D01*
X116274285Y-106385240D01*
X116740000Y-106192811D01*
X116740000Y-107435198D01*
X113257440Y-110917758D01*
X113257440Y-110350000D01*
X113213162Y-110114683D01*
X113074090Y-109898559D01*
X112861890Y-109753569D01*
X112610000Y-109702560D01*
X111390000Y-109702560D01*
X111154683Y-109746838D01*
X110938559Y-109885910D01*
X110793569Y-110098110D01*
X110772440Y-110202448D01*
X110772440Y-110000000D01*
X110728162Y-109764683D01*
X110589090Y-109548559D01*
X110519289Y-109500866D01*
X110576441Y-109464090D01*
X110721431Y-109251890D01*
X110745102Y-109135000D01*
X110975025Y-109135000D01*
X111138110Y-109246431D01*
X111390000Y-109297440D01*
X112610000Y-109297440D01*
X112845317Y-109253162D01*
X113061441Y-109114090D01*
X113206431Y-108901890D01*
X113257440Y-108650000D01*
X113257440Y-107400000D01*
X113213162Y-107164683D01*
X113106241Y-106998523D01*
X113206431Y-106851890D01*
X113257440Y-106600000D01*
X113257440Y-105350000D01*
X113213162Y-105114683D01*
X113074090Y-104898559D01*
X112861890Y-104753569D01*
X112610000Y-104702560D01*
X111390000Y-104702560D01*
X111154683Y-104746838D01*
X110938559Y-104885910D01*
X110799110Y-105090000D01*
X110795558Y-105090000D01*
X110753162Y-104864683D01*
X110614090Y-104648559D01*
X110401890Y-104503569D01*
X110388803Y-104500919D01*
X110601441Y-104364090D01*
X110746431Y-104151890D01*
X110797164Y-103901364D01*
X110925910Y-104101441D01*
X111138110Y-104246431D01*
X111390000Y-104297440D01*
X112610000Y-104297440D01*
X112845317Y-104253162D01*
X113061441Y-104114090D01*
X113206431Y-103901890D01*
X113257440Y-103650000D01*
X113257440Y-102400000D01*
X113213162Y-102164683D01*
X113074090Y-101948559D01*
X112861890Y-101803569D01*
X112784590Y-101787915D01*
X112792192Y-101780327D01*
X112934838Y-101436799D01*
X112935162Y-101064833D01*
X112793117Y-100721057D01*
X112530327Y-100457808D01*
X112186799Y-100315162D01*
X111814833Y-100314838D01*
X111471057Y-100456883D01*
X111207808Y-100719673D01*
X111065162Y-101063201D01*
X111064838Y-101435167D01*
X111206883Y-101778943D01*
X111213667Y-101785739D01*
X111154683Y-101796838D01*
X110938559Y-101935910D01*
X110793569Y-102148110D01*
X110771007Y-102259523D01*
X110753162Y-102164683D01*
X110614090Y-101948559D01*
X110401890Y-101803569D01*
X110150000Y-101752560D01*
X108850000Y-101752560D01*
X108614683Y-101796838D01*
X108398559Y-101935910D01*
X108253569Y-102148110D01*
X108202560Y-102400000D01*
X108202560Y-103372638D01*
X106662599Y-104912599D01*
X106497852Y-105159161D01*
X106440000Y-105450000D01*
X106440000Y-106252069D01*
X106348559Y-106310910D01*
X106203569Y-106523110D01*
X106152560Y-106775000D01*
X106152560Y-107065132D01*
X105847440Y-107064866D01*
X105847440Y-106775000D01*
X105803162Y-106539683D01*
X105664090Y-106323559D01*
X105451890Y-106178569D01*
X105200000Y-106127560D01*
X104400000Y-106127560D01*
X104164683Y-106171838D01*
X103948559Y-106310910D01*
X103803569Y-106523110D01*
X103752560Y-106775000D01*
X103752560Y-107325000D01*
X103796838Y-107560317D01*
X103935910Y-107776441D01*
X104148110Y-107921431D01*
X104400000Y-107972440D01*
X105065023Y-107972440D01*
X105064946Y-108060804D01*
X104927000Y-108198750D01*
X104927000Y-108823000D01*
X105543867Y-108823000D01*
X105813201Y-108934838D01*
X106152560Y-108935134D01*
X106152560Y-109225000D01*
X106196838Y-109460317D01*
X106335910Y-109676441D01*
X106430002Y-109740731D01*
X106264683Y-109771838D01*
X106048559Y-109910910D01*
X106002031Y-109979006D01*
X105859698Y-109836673D01*
X105626309Y-109740000D01*
X105583026Y-109740000D01*
X105738327Y-109584698D01*
X105835000Y-109351309D01*
X105835000Y-109235750D01*
X105676250Y-109077000D01*
X104927000Y-109077000D01*
X104927000Y-109701250D01*
X105000750Y-109775000D01*
X104877000Y-109898750D01*
X104877000Y-110873000D01*
X104897000Y-110873000D01*
X104897000Y-111127000D01*
X104877000Y-111127000D01*
X104877000Y-112101250D01*
X105035750Y-112260000D01*
X105626309Y-112260000D01*
X105859698Y-112163327D01*
X106000936Y-112022090D01*
X106035910Y-112076441D01*
X106248110Y-112221431D01*
X106500000Y-112272440D01*
X106702602Y-112272440D01*
X106712599Y-112287401D01*
X107064878Y-112639680D01*
X107064838Y-112685167D01*
X107087494Y-112740000D01*
X102500000Y-112740000D01*
X102209160Y-112797852D01*
X101962599Y-112962599D01*
X99500000Y-115425198D01*
X98375002Y-114300200D01*
X98384759Y-114276702D01*
X98385240Y-113725715D01*
X98174831Y-113216485D01*
X97785564Y-112826539D01*
X97276702Y-112615241D01*
X96725715Y-112614760D01*
X96216485Y-112825169D01*
X95826539Y-113214436D01*
X95668893Y-113594091D01*
X95537401Y-113462599D01*
X95290839Y-113297852D01*
X95000000Y-113240000D01*
X93184547Y-113240000D01*
X93174831Y-113216485D01*
X92785564Y-112826539D01*
X92276702Y-112615241D01*
X91725715Y-112614760D01*
X91216485Y-112825169D01*
X90826539Y-113214436D01*
X90615241Y-113723298D01*
X90614760Y-114274285D01*
X90825169Y-114783515D01*
X91214436Y-115173461D01*
X91723298Y-115384759D01*
X92274285Y-115385240D01*
X92783515Y-115174831D01*
X93173461Y-114785564D01*
X93184076Y-114760000D01*
X94685198Y-114760000D01*
X95703416Y-115778218D01*
X95489946Y-115920853D01*
X95462150Y-115962452D01*
X95453162Y-115914683D01*
X95314090Y-115698559D01*
X95101890Y-115553569D01*
X94850000Y-115502560D01*
X93150000Y-115502560D01*
X92914683Y-115546838D01*
X92698559Y-115685910D01*
X92553569Y-115898110D01*
X92502560Y-116150000D01*
X92502560Y-117850000D01*
X92506888Y-117873000D01*
X86665000Y-117873000D01*
X87122943Y-117683782D01*
X87681819Y-117125880D01*
X87984654Y-116396573D01*
X87985343Y-115606891D01*
X87683782Y-114877057D01*
X87125880Y-114318181D01*
X86396573Y-114015346D01*
X85606891Y-114014657D01*
X84877057Y-114316218D01*
X84318181Y-114874120D01*
X84127000Y-115334535D01*
X84127000Y-111285750D01*
X103365000Y-111285750D01*
X103365000Y-111751310D01*
X103461673Y-111984699D01*
X103640302Y-112163327D01*
X103873691Y-112260000D01*
X104464250Y-112260000D01*
X104623000Y-112101250D01*
X104623000Y-111127000D01*
X103523750Y-111127000D01*
X103365000Y-111285750D01*
X84127000Y-111285750D01*
X84127000Y-110000000D01*
X84116994Y-109950590D01*
X84088553Y-109908965D01*
X84046159Y-109881685D01*
X84000000Y-109873000D01*
X82127000Y-109873000D01*
X82127000Y-99773691D01*
X87715000Y-99773691D01*
X87715000Y-100364250D01*
X87873750Y-100523000D01*
X88873000Y-100523000D01*
X88873000Y-99423750D01*
X89127000Y-99423750D01*
X89127000Y-100523000D01*
X90126250Y-100523000D01*
X90285000Y-100364250D01*
X90285000Y-99773691D01*
X90188327Y-99540302D01*
X90009699Y-99361673D01*
X89776310Y-99265000D01*
X89285750Y-99265000D01*
X89127000Y-99423750D01*
X88873000Y-99423750D01*
X88714250Y-99265000D01*
X88223690Y-99265000D01*
X87990301Y-99361673D01*
X87811673Y-99540302D01*
X87715000Y-99773691D01*
X82127000Y-99773691D01*
X82127000Y-95500000D01*
X84102560Y-95500000D01*
X84102560Y-97000000D01*
X84146838Y-97235317D01*
X84285910Y-97451441D01*
X84498110Y-97596431D01*
X84750000Y-97647440D01*
X86250000Y-97647440D01*
X86485317Y-97603162D01*
X86701441Y-97464090D01*
X86846431Y-97251890D01*
X86897440Y-97000000D01*
X86897440Y-95500000D01*
X86853162Y-95264683D01*
X86714090Y-95048559D01*
X86501890Y-94903569D01*
X86250000Y-94852560D01*
X84750000Y-94852560D01*
X84514683Y-94896838D01*
X84298559Y-95035910D01*
X84153569Y-95248110D01*
X84102560Y-95500000D01*
X82127000Y-95500000D01*
X82127000Y-90135750D01*
X90665000Y-90135750D01*
X90665000Y-90526310D01*
X90761673Y-90759699D01*
X90940302Y-90938327D01*
X91173691Y-91035000D01*
X92114250Y-91035000D01*
X92273000Y-90876250D01*
X92273000Y-89977000D01*
X92527000Y-89977000D01*
X92527000Y-90876250D01*
X92685750Y-91035000D01*
X93626309Y-91035000D01*
X93859698Y-90938327D01*
X94038327Y-90759699D01*
X94135000Y-90526310D01*
X94135000Y-90135750D01*
X93976250Y-89977000D01*
X92527000Y-89977000D01*
X92273000Y-89977000D01*
X90823750Y-89977000D01*
X90665000Y-90135750D01*
X82127000Y-90135750D01*
X82127000Y-89471517D01*
X84708088Y-89471517D01*
X84776077Y-89712460D01*
X85295171Y-89897201D01*
X85845448Y-89869230D01*
X86223923Y-89712460D01*
X86291912Y-89471517D01*
X85500000Y-88679605D01*
X84708088Y-89471517D01*
X82127000Y-89471517D01*
X82127000Y-88295171D01*
X84102799Y-88295171D01*
X84130770Y-88845448D01*
X84287540Y-89223923D01*
X84528483Y-89291912D01*
X85320395Y-88500000D01*
X85679605Y-88500000D01*
X86471517Y-89291912D01*
X86712460Y-89223923D01*
X86897201Y-88704829D01*
X86869230Y-88154552D01*
X86712460Y-87776077D01*
X86471517Y-87708088D01*
X85679605Y-88500000D01*
X85320395Y-88500000D01*
X84528483Y-87708088D01*
X84287540Y-87776077D01*
X84102799Y-88295171D01*
X82127000Y-88295171D01*
X82127000Y-87528483D01*
X84708088Y-87528483D01*
X85500000Y-88320395D01*
X86291912Y-87528483D01*
X86223923Y-87287540D01*
X85704829Y-87102799D01*
X85154552Y-87130770D01*
X84776077Y-87287540D01*
X84708088Y-87528483D01*
X82127000Y-87528483D01*
X82127000Y-83135750D01*
X87715000Y-83135750D01*
X87715000Y-83726309D01*
X87811673Y-83959698D01*
X87990301Y-84138327D01*
X88223690Y-84235000D01*
X88714250Y-84235000D01*
X88873000Y-84076250D01*
X88873000Y-82977000D01*
X89127000Y-82977000D01*
X89127000Y-84076250D01*
X89285750Y-84235000D01*
X89776310Y-84235000D01*
X90009699Y-84138327D01*
X90188327Y-83959698D01*
X90285000Y-83726309D01*
X90285000Y-83135750D01*
X90126250Y-82977000D01*
X89127000Y-82977000D01*
X88873000Y-82977000D01*
X87873750Y-82977000D01*
X87715000Y-83135750D01*
X82127000Y-83135750D01*
X82127000Y-79400000D01*
X87702560Y-79400000D01*
X87702560Y-80900000D01*
X87746838Y-81135317D01*
X87885910Y-81351441D01*
X88098110Y-81496431D01*
X88131490Y-81503191D01*
X87990301Y-81561673D01*
X87811673Y-81740302D01*
X87715000Y-81973691D01*
X87715000Y-82564250D01*
X87873750Y-82723000D01*
X88873000Y-82723000D01*
X88873000Y-82703000D01*
X89127000Y-82703000D01*
X89127000Y-82723000D01*
X90126250Y-82723000D01*
X90285000Y-82564250D01*
X90285000Y-81973691D01*
X90188327Y-81740302D01*
X90009699Y-81561673D01*
X89873713Y-81505346D01*
X89885317Y-81503162D01*
X90101441Y-81364090D01*
X90246431Y-81151890D01*
X90295415Y-80910000D01*
X90797935Y-80910000D01*
X90703569Y-81048110D01*
X90652560Y-81300000D01*
X90652560Y-82400000D01*
X90696838Y-82635317D01*
X90835910Y-82851441D01*
X90837299Y-82852390D01*
X90703569Y-83048110D01*
X90652560Y-83300000D01*
X90652560Y-84400000D01*
X90696838Y-84635317D01*
X90835910Y-84851441D01*
X90837299Y-84852390D01*
X90703569Y-85048110D01*
X90652560Y-85300000D01*
X90652560Y-86400000D01*
X90696838Y-86635317D01*
X90835910Y-86851441D01*
X90837299Y-86852390D01*
X90703569Y-87048110D01*
X90652560Y-87300000D01*
X90652560Y-88400000D01*
X90696838Y-88635317D01*
X90835910Y-88851441D01*
X90844598Y-88857377D01*
X90761673Y-88940301D01*
X90665000Y-89173690D01*
X90665000Y-89564250D01*
X90823750Y-89723000D01*
X92273000Y-89723000D01*
X92273000Y-89703000D01*
X92527000Y-89703000D01*
X92527000Y-89723000D01*
X93976250Y-89723000D01*
X94135000Y-89564250D01*
X94135000Y-89173690D01*
X94038327Y-88940301D01*
X93955774Y-88857748D01*
X94096431Y-88651890D01*
X94147440Y-88400000D01*
X94147440Y-87300000D01*
X94103162Y-87064683D01*
X93964090Y-86848559D01*
X93962701Y-86847610D01*
X94096431Y-86651890D01*
X94147440Y-86400000D01*
X94147440Y-85300000D01*
X94103162Y-85064683D01*
X93964090Y-84848559D01*
X93962701Y-84847610D01*
X94096431Y-84651890D01*
X94147440Y-84400000D01*
X94147440Y-83300000D01*
X94103162Y-83064683D01*
X93964090Y-82848559D01*
X93962701Y-82847610D01*
X94096431Y-82651890D01*
X94147440Y-82400000D01*
X94147440Y-81300000D01*
X94103162Y-81064683D01*
X93964090Y-80848559D01*
X93962701Y-80847610D01*
X94096431Y-80651890D01*
X94147440Y-80400000D01*
X94147440Y-79300000D01*
X94103162Y-79064683D01*
X93964090Y-78848559D01*
X93962701Y-78847610D01*
X94096431Y-78651890D01*
X94147440Y-78400000D01*
X94147440Y-77300000D01*
X94103162Y-77064683D01*
X93964090Y-76848559D01*
X93962701Y-76847610D01*
X94088579Y-76663381D01*
X94240000Y-76814802D01*
X94240000Y-94602991D01*
X93973339Y-94602758D01*
X93459697Y-94814990D01*
X93066371Y-95207630D01*
X92853243Y-95720900D01*
X92852758Y-96276661D01*
X93064990Y-96790303D01*
X93457630Y-97183629D01*
X93970900Y-97396757D01*
X94526661Y-97397242D01*
X95040303Y-97185010D01*
X95433629Y-96792370D01*
X95646757Y-96279100D01*
X95647111Y-95873208D01*
X95702148Y-95790839D01*
X95760000Y-95500000D01*
X95760000Y-78400000D01*
X98252560Y-78400000D01*
X98252560Y-81600000D01*
X98296838Y-81835317D01*
X98435910Y-82051441D01*
X98648110Y-82196431D01*
X98900000Y-82247440D01*
X102100000Y-82247440D01*
X102335317Y-82203162D01*
X102551441Y-82064090D01*
X102696431Y-81851890D01*
X102747440Y-81600000D01*
X102747440Y-78400000D01*
X102703162Y-78164683D01*
X102564090Y-77948559D01*
X102351890Y-77803569D01*
X102100000Y-77752560D01*
X98900000Y-77752560D01*
X98664683Y-77796838D01*
X98448559Y-77935910D01*
X98303569Y-78148110D01*
X98252560Y-78400000D01*
X95760000Y-78400000D01*
X95760000Y-76500000D01*
X95702148Y-76209161D01*
X95537401Y-75962599D01*
X94887401Y-75312599D01*
X94640839Y-75147852D01*
X94350000Y-75090000D01*
X94107926Y-75090000D01*
X94103162Y-75064683D01*
X93964090Y-74848559D01*
X93751890Y-74703569D01*
X93500000Y-74652560D01*
X91300000Y-74652560D01*
X91064683Y-74696838D01*
X90848559Y-74835910D01*
X90703569Y-75048110D01*
X90652560Y-75300000D01*
X90652560Y-76400000D01*
X90696838Y-76635317D01*
X90835910Y-76851441D01*
X90837299Y-76852390D01*
X90703569Y-77048110D01*
X90652560Y-77300000D01*
X90652560Y-78400000D01*
X90696838Y-78635317D01*
X90835910Y-78851441D01*
X90837299Y-78852390D01*
X90703569Y-79048110D01*
X90652560Y-79300000D01*
X90652560Y-79390000D01*
X90295558Y-79390000D01*
X90253162Y-79164683D01*
X90114090Y-78948559D01*
X89901890Y-78803569D01*
X89650000Y-78752560D01*
X88350000Y-78752560D01*
X88114683Y-78796838D01*
X87898559Y-78935910D01*
X87753569Y-79148110D01*
X87702560Y-79400000D01*
X82127000Y-79400000D01*
X82127000Y-76627000D01*
X84000000Y-76627000D01*
X84049410Y-76616994D01*
X84091035Y-76588553D01*
X84118315Y-76546159D01*
X84127000Y-76500000D01*
X84127000Y-73127000D01*
X96565106Y-73127000D01*
X96564838Y-73435167D01*
M02*
